<?xml version="1.0" standalone="no"?>
 <!DOCTYPE svg PUBLIC "-//W3C//DTD SVG 1.1//EN" 
 "http://www.w3.org/Graphics/SVG/1.1/DTD/svg11.dtd"> 
<svg
  xmlns:svg="http://www.w3.org/2000/svg"
  xmlns="http://www.w3.org/2000/svg"
  xmlns:xlink="http://www.w3.org/1999/xlink"
  version="1.1"
  width="297.0022mm" height="210.0072mm" viewBox="0.0000 0.0000 297.0022 210.0072">
<title>SVG Image created as LX417_prova_zener-F_Silkscreen.svg date 2023/05/01 19:08:57 </title>
  <desc>Image generated by PCBNEW </desc>
<g style="fill:#000000; fill-opacity:1.0000;stroke:#000000; stroke-opacity:1.0000;
stroke-linecap:round; stroke-linejoin:round;"
 transform="translate(0 0) scale(1 1)">
</g>
<g style="fill:#000000; fill-opacity:0.0; 
stroke:#000000; stroke-width:0.0000; stroke-opacity:1; 
stroke-linecap:round; stroke-linejoin:round;">
</g>
<g style="fill:#000000; fill-opacity:0.0; 
stroke:#000000; stroke-width:0.3000; stroke-opacity:1; 
stroke-linecap:round; stroke-linejoin:round;">
<text x="128.2700" y="80.0100"
textLength="2.3071" font-size="2.0000" lengthAdjust="spacingAndGlyphs"
text-anchor="start" opacity="0">-</text>
<g class="stroked-text"><desc>-</desc>
<path d="M128.6271 79.2550
L129.7700 79.2550
" />
</g><text x="129.5400" y="82.5500"
textLength="6.8786" font-size="2.0000" lengthAdjust="spacingAndGlyphs"
text-anchor="start" opacity="0">tester</text>
<g class="stroked-text"><desc>tester</desc>
<path d="M129.6829 81.3664
L130.2543 81.3664
" />
<path d="M129.8971 80.8664
L129.8971 82.1521
" />
<path d="M129.8971 82.1521
L129.9686 82.2950
" />
<path d="M129.9686 82.2950
L130.1114 82.3664
" />
<path d="M130.1114 82.3664
L130.2543 82.3664
" />
<path d="M131.3257 82.2950
L131.1829 82.3664
" />
<path d="M131.1829 82.3664
L130.8971 82.3664
" />
<path d="M130.8971 82.3664
L130.7543 82.2950
" />
<path d="M130.7543 82.2950
L130.6829 82.1521
" />
<path d="M130.6829 82.1521
L130.6829 81.5807
" />
<path d="M130.6829 81.5807
L130.7543 81.4379
" />
<path d="M130.7543 81.4379
L130.8971 81.3664
" />
<path d="M130.8971 81.3664
L131.1829 81.3664
" />
<path d="M131.1829 81.3664
L131.3257 81.4379
" />
<path d="M131.3257 81.4379
L131.3971 81.5807
" />
<path d="M131.3971 81.5807
L131.3971 81.7236
" />
<path d="M131.3971 81.7236
L130.6829 81.8664
" />
<path d="M131.9686 82.2950
L132.1114 82.3664
" />
<path d="M132.1114 82.3664
L132.3971 82.3664
" />
<path d="M132.3971 82.3664
L132.5400 82.2950
" />
<path d="M132.5400 82.2950
L132.6114 82.1521
" />
<path d="M132.6114 82.1521
L132.6114 82.0807
" />
<path d="M132.6114 82.0807
L132.5400 81.9379
" />
<path d="M132.5400 81.9379
L132.3971 81.8664
" />
<path d="M132.3971 81.8664
L132.1829 81.8664
" />
<path d="M132.1829 81.8664
L132.0400 81.7950
" />
<path d="M132.0400 81.7950
L131.9686 81.6521
" />
<path d="M131.9686 81.6521
L131.9686 81.5807
" />
<path d="M131.9686 81.5807
L132.0400 81.4379
" />
<path d="M132.0400 81.4379
L132.1829 81.3664
" />
<path d="M132.1829 81.3664
L132.3971 81.3664
" />
<path d="M132.3971 81.3664
L132.5400 81.4379
" />
<path d="M133.0400 81.3664
L133.6114 81.3664
" />
<path d="M133.2543 80.8664
L133.2543 82.1521
" />
<path d="M133.2543 82.1521
L133.3257 82.2950
" />
<path d="M133.3257 82.2950
L133.4686 82.3664
" />
<path d="M133.4686 82.3664
L133.6114 82.3664
" />
<path d="M134.6829 82.2950
L134.5400 82.3664
" />
<path d="M134.5400 82.3664
L134.2543 82.3664
" />
<path d="M134.2543 82.3664
L134.1114 82.2950
" />
<path d="M134.1114 82.2950
L134.0400 82.1521
" />
<path d="M134.0400 82.1521
L134.0400 81.5807
" />
<path d="M134.0400 81.5807
L134.1114 81.4379
" />
<path d="M134.1114 81.4379
L134.2543 81.3664
" />
<path d="M134.2543 81.3664
L134.5400 81.3664
" />
<path d="M134.5400 81.3664
L134.6829 81.4379
" />
<path d="M134.6829 81.4379
L134.7543 81.5807
" />
<path d="M134.7543 81.5807
L134.7543 81.7236
" />
<path d="M134.7543 81.7236
L134.0400 81.8664
" />
<path d="M135.3971 82.3664
L135.3971 81.3664
" />
<path d="M135.3971 81.6521
L135.4686 81.5093
" />
<path d="M135.4686 81.5093
L135.5400 81.4379
" />
<path d="M135.5400 81.4379
L135.6829 81.3664
" />
<path d="M135.6829 81.3664
L135.8257 81.3664
" />
</g><text x="126.3983" y="91.2434"
textLength="1.6643" font-size="2.0000" lengthAdjust="spacingAndGlyphs"
text-anchor="start" opacity="0">k</text>
<g class="stroked-text"><desc>k</desc>
<path d="M126.7555 91.0598
L126.7555 89.5598
" />
<path d="M126.8983 90.4884
L127.3269 91.0598
" />
<path d="M127.3269 90.0598
L126.7555 90.6312
" />
</g><text x="128.2700" y="77.4700"
textLength="2.3071" font-size="2.0000" lengthAdjust="spacingAndGlyphs"
text-anchor="start" opacity="0">+</text>
<g class="stroked-text"><desc>+</desc>
<path d="M128.6271 76.7150
L129.7700 76.7150
" />
<path d="M129.1986 77.2864
L129.1986 76.1436
" />
</g><text x="129.5400" y="73.6600"
textLength="2.5929" font-size="2.0000" lengthAdjust="spacingAndGlyphs"
text-anchor="start" opacity="0">al</text>
<g class="stroked-text"><desc>al</desc>
<path d="M130.5400 73.4764
L130.5400 72.6907
" />
<path d="M130.5400 72.6907
L130.4686 72.5479
" />
<path d="M130.4686 72.5479
L130.3257 72.4764
" />
<path d="M130.3257 72.4764
L130.0400 72.4764
" />
<path d="M130.0400 72.4764
L129.8971 72.5479
" />
<path d="M130.5400 73.4050
L130.3971 73.4764
" />
<path d="M130.3971 73.4764
L130.0400 73.4764
" />
<path d="M130.0400 73.4764
L129.8971 73.4050
" />
<path d="M129.8971 73.4050
L129.8257 73.2621
" />
<path d="M129.8257 73.2621
L129.8257 73.1193
" />
<path d="M129.8257 73.1193
L129.8971 72.9764
" />
<path d="M129.8971 72.9764
L130.0400 72.9050
" />
<path d="M130.0400 72.9050
L130.3971 72.9050
" />
<path d="M130.3971 72.9050
L130.5400 72.8336
" />
<path d="M131.4686 73.4764
L131.3257 73.4050
" />
<path d="M131.3257 73.4050
L131.2543 73.2621
" />
<path d="M131.2543 73.2621
L131.2543 71.9764
" />
</g><text x="126.2453" y="104.7891"
textLength="1.8071" font-size="2.0000" lengthAdjust="spacingAndGlyphs"
text-anchor="start" opacity="0">a</text>
<g class="stroked-text"><desc>a</desc>
<path d="M127.2453 104.6056
L127.2453 103.8199
" />
<path d="M127.2453 103.8199
L127.1739 103.6770
" />
<path d="M127.1739 103.6770
L127.0310 103.6056
" />
<path d="M127.0310 103.6056
L126.7453 103.6056
" />
<path d="M126.7453 103.6056
L126.6024 103.6770
" />
<path d="M127.2453 104.5341
L127.1024 104.6056
" />
<path d="M127.1024 104.6056
L126.7453 104.6056
" />
<path d="M126.7453 104.6056
L126.6024 104.5341
" />
<path d="M126.6024 104.5341
L126.5310 104.3913
" />
<path d="M126.5310 104.3913
L126.5310 104.2484
" />
<path d="M126.5310 104.2484
L126.6024 104.1056
" />
<path d="M126.6024 104.1056
L126.7453 104.0341
" />
<path d="M126.7453 104.0341
L127.1024 104.0341
" />
<path d="M127.1024 104.0341
L127.2453 103.9627
" />
</g><text x="128.2700" y="86.3600"
textLength="2.3071" font-size="2.0000" lengthAdjust="spacingAndGlyphs"
text-anchor="start" opacity="0">+</text>
<g class="stroked-text"><desc>+</desc>
<path d="M128.6271 85.6050
L129.7700 85.6050
" />
<path d="M129.1986 86.1764
L129.1986 85.0336
" />
</g><text x="128.2700" y="71.1200"
textLength="2.3071" font-size="2.0000" lengthAdjust="spacingAndGlyphs"
text-anchor="start" opacity="0">-</text>
<g class="stroked-text"><desc>-</desc>
<path d="M128.6271 70.3650
L129.7700 70.3650
" />
</g><text x="128.2700" y="97.7900"
textLength="6.7357" font-size="2.0000" lengthAdjust="spacingAndGlyphs"
text-anchor="start" opacity="0">probe</text>
<g class="stroked-text"><desc>probe</desc>
<path d="M128.6271 96.6064
L128.6271 98.1064
" />
<path d="M128.6271 96.6779
L128.7700 96.6064
" />
<path d="M128.7700 96.6064
L129.0557 96.6064
" />
<path d="M129.0557 96.6064
L129.1986 96.6779
" />
<path d="M129.1986 96.6779
L129.2700 96.7493
" />
<path d="M129.2700 96.7493
L129.3414 96.8921
" />
<path d="M129.3414 96.8921
L129.3414 97.3207
" />
<path d="M129.3414 97.3207
L129.2700 97.4636
" />
<path d="M129.2700 97.4636
L129.1986 97.5350
" />
<path d="M129.1986 97.5350
L129.0557 97.6064
" />
<path d="M129.0557 97.6064
L128.7700 97.6064
" />
<path d="M128.7700 97.6064
L128.6271 97.5350
" />
<path d="M129.9843 97.6064
L129.9843 96.6064
" />
<path d="M129.9843 96.8921
L130.0557 96.7493
" />
<path d="M130.0557 96.7493
L130.1271 96.6779
" />
<path d="M130.1271 96.6779
L130.2700 96.6064
" />
<path d="M130.2700 96.6064
L130.4129 96.6064
" />
<path d="M131.1271 97.6064
L130.9843 97.5350
" />
<path d="M130.9843 97.5350
L130.9129 97.4636
" />
<path d="M130.9129 97.4636
L130.8414 97.3207
" />
<path d="M130.8414 97.3207
L130.8414 96.8921
" />
<path d="M130.8414 96.8921
L130.9129 96.7493
" />
<path d="M130.9129 96.7493
L130.9843 96.6779
" />
<path d="M130.9843 96.6779
L131.1271 96.6064
" />
<path d="M131.1271 96.6064
L131.3414 96.6064
" />
<path d="M131.3414 96.6064
L131.4843 96.6779
" />
<path d="M131.4843 96.6779
L131.5557 96.7493
" />
<path d="M131.5557 96.7493
L131.6271 96.8921
" />
<path d="M131.6271 96.8921
L131.6271 97.3207
" />
<path d="M131.6271 97.3207
L131.5557 97.4636
" />
<path d="M131.5557 97.4636
L131.4843 97.5350
" />
<path d="M131.4843 97.5350
L131.3414 97.6064
" />
<path d="M131.3414 97.6064
L131.1271 97.6064
" />
<path d="M132.2700 97.6064
L132.2700 96.1064
" />
<path d="M132.2700 96.6779
L132.4129 96.6064
" />
<path d="M132.4129 96.6064
L132.6986 96.6064
" />
<path d="M132.6986 96.6064
L132.8414 96.6779
" />
<path d="M132.8414 96.6779
L132.9129 96.7493
" />
<path d="M132.9129 96.7493
L132.9843 96.8921
" />
<path d="M132.9843 96.8921
L132.9843 97.3207
" />
<path d="M132.9843 97.3207
L132.9129 97.4636
" />
<path d="M132.9129 97.4636
L132.8414 97.5350
" />
<path d="M132.8414 97.5350
L132.6986 97.6064
" />
<path d="M132.6986 97.6064
L132.4129 97.6064
" />
<path d="M132.4129 97.6064
L132.2700 97.5350
" />
<path d="M134.1986 97.5350
L134.0557 97.6064
" />
<path d="M134.0557 97.6064
L133.7700 97.6064
" />
<path d="M133.7700 97.6064
L133.6271 97.5350
" />
<path d="M133.6271 97.5350
L133.5557 97.3921
" />
<path d="M133.5557 97.3921
L133.5557 96.8207
" />
<path d="M133.5557 96.8207
L133.6271 96.6779
" />
<path d="M133.6271 96.6779
L133.7700 96.6064
" />
<path d="M133.7700 96.6064
L134.0557 96.6064
" />
<path d="M134.0557 96.6064
L134.1986 96.6779
" />
<path d="M134.1986 96.6779
L134.2700 96.8207
" />
<path d="M134.2700 96.8207
L134.2700 96.9636
" />
<path d="M134.2700 96.9636
L133.5557 97.1064
" />
</g></g>
<g style="fill:#000000; fill-opacity:0.0; 
stroke:#000000; stroke-width:0.1500; stroke-opacity:1; 
stroke-linecap:round; stroke-linejoin:round;">
<g transform="rotate(-90.000000 160.6700 101.6000)">
<text x="160.6700" y="102.1000"
textLength="2.1274" font-size="1.3333" lengthAdjust="spacingAndGlyphs"
text-anchor="middle" opacity="0">R6</text>
</g>
<g class="stroked-text"><desc>R6</desc>
<path d="M161.1326 101.7667
L160.6564 102.1000
" />
<path d="M161.1326 102.3381
L160.1326 102.3381
" />
<path d="M160.1326 102.3381
L160.1326 101.9571
" />
<path d="M160.1326 101.9571
L160.1802 101.8619
" />
<path d="M160.1802 101.8619
L160.2279 101.8143
" />
<path d="M160.2279 101.8143
L160.3231 101.7667
" />
<path d="M160.3231 101.7667
L160.4660 101.7667
" />
<path d="M160.4660 101.7667
L160.5612 101.8143
" />
<path d="M160.5612 101.8143
L160.6088 101.8619
" />
<path d="M160.6088 101.8619
L160.6564 101.9571
" />
<path d="M160.6564 101.9571
L160.6564 102.3381
" />
<path d="M160.1326 100.9095
L160.1326 101.1000
" />
<path d="M160.1326 101.1000
L160.1802 101.1952
" />
<path d="M160.1802 101.1952
L160.2279 101.2429
" />
<path d="M160.2279 101.2429
L160.3707 101.3381
" />
<path d="M160.3707 101.3381
L160.5612 101.3857
" />
<path d="M160.5612 101.3857
L160.9421 101.3857
" />
<path d="M160.9421 101.3857
L161.0374 101.3381
" />
<path d="M161.0374 101.3381
L161.0850 101.2905
" />
<path d="M161.0850 101.2905
L161.1326 101.1952
" />
<path d="M161.1326 101.1952
L161.1326 101.0048
" />
<path d="M161.1326 101.0048
L161.0850 100.9095
" />
<path d="M161.0850 100.9095
L161.0374 100.8619
" />
<path d="M161.0374 100.8619
L160.9421 100.8143
" />
<path d="M160.9421 100.8143
L160.7040 100.8143
" />
<path d="M160.7040 100.8143
L160.6088 100.8619
" />
<path d="M160.6088 100.8619
L160.5612 100.9095
" />
<path d="M160.5612 100.9095
L160.5136 101.0048
" />
<path d="M160.5136 101.0048
L160.5136 101.1952
" />
<path d="M160.5136 101.1952
L160.5612 101.2905
" />
<path d="M160.5612 101.2905
L160.6088 101.3381
" />
<path d="M160.6088 101.3381
L160.7040 101.3857
" />
</g><g transform="rotate(-90.000000 137.3700 78.7400)">
<text x="137.3700" y="79.2400"
textLength="3.2226" font-size="1.3333" lengthAdjust="spacingAndGlyphs"
text-anchor="middle" opacity="0">SW1</text>
</g>
<g class="stroked-text"><desc>SW1</desc>
<path d="M137.7850 80.0733
L137.8326 79.9305
" />
<path d="M137.8326 79.9305
L137.8326 79.6924
" />
<path d="M137.8326 79.6924
L137.7850 79.5971
" />
<path d="M137.7850 79.5971
L137.7374 79.5495
" />
<path d="M137.7374 79.5495
L137.6421 79.5019
" />
<path d="M137.6421 79.5019
L137.5469 79.5019
" />
<path d="M137.5469 79.5019
L137.4517 79.5495
" />
<path d="M137.4517 79.5495
L137.4040 79.5971
" />
<path d="M137.4040 79.5971
L137.3564 79.6924
" />
<path d="M137.3564 79.6924
L137.3088 79.8829
" />
<path d="M137.3088 79.8829
L137.2612 79.9781
" />
<path d="M137.2612 79.9781
L137.2136 80.0257
" />
<path d="M137.2136 80.0257
L137.1183 80.0733
" />
<path d="M137.1183 80.0733
L137.0231 80.0733
" />
<path d="M137.0231 80.0733
L136.9279 80.0257
" />
<path d="M136.9279 80.0257
L136.8802 79.9781
" />
<path d="M136.8802 79.9781
L136.8326 79.8829
" />
<path d="M136.8326 79.8829
L136.8326 79.6448
" />
<path d="M136.8326 79.6448
L136.8802 79.5019
" />
<path d="M136.8326 79.1686
L137.8326 78.9305
" />
<path d="M137.8326 78.9305
L137.1183 78.7400
" />
<path d="M137.1183 78.7400
L137.8326 78.5495
" />
<path d="M137.8326 78.5495
L136.8326 78.3114
" />
<path d="M137.8326 77.4067
L137.8326 77.9781
" />
<path d="M137.8326 77.6924
L136.8326 77.6924
" />
<path d="M136.8326 77.6924
L136.9755 77.7876
" />
<path d="M136.9755 77.7876
L137.0707 77.8829
" />
<path d="M137.0707 77.8829
L137.1183 77.9781
" />
</g><g transform="rotate(-90.000000 146.5800 76.2000)">
<text x="146.5800" y="76.7000"
textLength="2.1750" font-size="1.3333" lengthAdjust="spacingAndGlyphs"
text-anchor="middle" opacity="0">Q1</text>
</g>
<g class="stroked-text"><desc>Q1</desc>
<path d="M147.1379 76.2952
L147.0902 76.3905
" />
<path d="M147.0902 76.3905
L146.9950 76.4857
" />
<path d="M146.9950 76.4857
L146.8521 76.6286
" />
<path d="M146.8521 76.6286
L146.8045 76.7238
" />
<path d="M146.8045 76.7238
L146.8045 76.8190
" />
<path d="M147.0426 76.7714
L146.9950 76.8667
" />
<path d="M146.9950 76.8667
L146.8998 76.9619
" />
<path d="M146.8998 76.9619
L146.7093 77.0095
" />
<path d="M146.7093 77.0095
L146.3760 77.0095
" />
<path d="M146.3760 77.0095
L146.1855 76.9619
" />
<path d="M146.1855 76.9619
L146.0902 76.8667
" />
<path d="M146.0902 76.8667
L146.0426 76.7714
" />
<path d="M146.0426 76.7714
L146.0426 76.5810
" />
<path d="M146.0426 76.5810
L146.0902 76.4857
" />
<path d="M146.0902 76.4857
L146.1855 76.3905
" />
<path d="M146.1855 76.3905
L146.3760 76.3429
" />
<path d="M146.3760 76.3429
L146.7093 76.3429
" />
<path d="M146.7093 76.3429
L146.8998 76.3905
" />
<path d="M146.8998 76.3905
L146.9950 76.4857
" />
<path d="M146.9950 76.4857
L147.0426 76.5810
" />
<path d="M147.0426 76.5810
L147.0426 76.7714
" />
<path d="M147.0426 75.3905
L147.0426 75.9619
" />
<path d="M147.0426 75.6762
L146.0426 75.6762
" />
<path d="M146.0426 75.6762
L146.1855 75.7714
" />
<path d="M146.1855 75.7714
L146.2807 75.8667
" />
<path d="M146.2807 75.8667
L146.3283 75.9619
" />
</g><text x="127.0000" y="77.7600"
textLength="1.8893" font-size="1.3333" lengthAdjust="spacingAndGlyphs"
text-anchor="middle" opacity="0">J1</text>
<g class="stroked-text"><desc>J1</desc>
<path d="M126.6667 76.7226
L126.6667 77.4369
" />
<path d="M126.6667 77.4369
L126.6190 77.5798
" />
<path d="M126.6190 77.5798
L126.5238 77.6750
" />
<path d="M126.5238 77.6750
L126.3810 77.7226
" />
<path d="M126.3810 77.7226
L126.2857 77.7226
" />
<path d="M127.6667 77.7226
L127.0952 77.7226
" />
<path d="M127.3810 77.7226
L127.3810 76.7226
" />
<path d="M127.3810 76.7226
L127.2857 76.8655
" />
<path d="M127.2857 76.8655
L127.1905 76.9607
" />
<path d="M127.1905 76.9607
L127.0952 77.0083
" />
</g><text x="152.4000" y="67.1600"
textLength="2.1274" font-size="1.3333" lengthAdjust="spacingAndGlyphs"
text-anchor="middle" opacity="0">R1</text>
<g class="stroked-text"><desc>R1</desc>
<path d="M152.2333 67.1226
L151.9000 66.6464
" />
<path d="M151.6619 67.1226
L151.6619 66.1226
" />
<path d="M151.6619 66.1226
L152.0429 66.1226
" />
<path d="M152.0429 66.1226
L152.1381 66.1702
" />
<path d="M152.1381 66.1702
L152.1857 66.2179
" />
<path d="M152.1857 66.2179
L152.2333 66.3131
" />
<path d="M152.2333 66.3131
L152.2333 66.4560
" />
<path d="M152.2333 66.4560
L152.1857 66.5512
" />
<path d="M152.1857 66.5512
L152.1381 66.5988
" />
<path d="M152.1381 66.5988
L152.0429 66.6464
" />
<path d="M152.0429 66.6464
L151.6619 66.6464
" />
<path d="M153.1857 67.1226
L152.6143 67.1226
" />
<path d="M152.9000 67.1226
L152.9000 66.1226
" />
<path d="M152.9000 66.1226
L152.8048 66.2655
" />
<path d="M152.8048 66.2655
L152.7095 66.3607
" />
<path d="M152.7095 66.3607
L152.6143 66.4083
" />
</g><text x="129.5400" y="103.3700"
textLength="2.1750" font-size="1.3333" lengthAdjust="spacingAndGlyphs"
text-anchor="middle" opacity="0">H4</text>
<g class="stroked-text"><desc>H4</desc>
<path d="M128.7781 103.3326
L128.7781 102.3326
" />
<path d="M128.7781 102.8088
L129.3495 102.8088
" />
<path d="M129.3495 103.3326
L129.3495 102.3326
" />
<path d="M130.2543 102.6660
L130.2543 103.3326
" />
<path d="M130.0162 102.2850
L129.7781 102.9993
" />
<path d="M129.7781 102.9993
L130.3971 102.9993
" />
</g><text x="129.5400" y="65.2700"
textLength="2.1750" font-size="1.3333" lengthAdjust="spacingAndGlyphs"
text-anchor="middle" opacity="0">H5</text>
<g class="stroked-text"><desc>H5</desc>
<path d="M128.7781 65.2326
L128.7781 64.2326
" />
<path d="M128.7781 64.7088
L129.3495 64.7088
" />
<path d="M129.3495 65.2326
L129.3495 64.2326
" />
<path d="M130.3019 64.2326
L129.8257 64.2326
" />
<path d="M129.8257 64.2326
L129.7781 64.7088
" />
<path d="M129.7781 64.7088
L129.8257 64.6612
" />
<path d="M129.8257 64.6612
L129.9210 64.6136
" />
<path d="M129.9210 64.6136
L130.1590 64.6136
" />
<path d="M130.1590 64.6136
L130.2543 64.6612
" />
<path d="M130.2543 64.6612
L130.3019 64.7088
" />
<path d="M130.3019 64.7088
L130.3495 64.8040
" />
<path d="M130.3495 64.8040
L130.3495 65.0421
" />
<path d="M130.3495 65.0421
L130.3019 65.1374
" />
<path d="M130.3019 65.1374
L130.2543 65.1850
" />
<path d="M130.2543 65.1850
L130.1590 65.2326
" />
<path d="M130.1590 65.2326
L129.9210 65.2326
" />
<path d="M129.9210 65.2326
L129.8257 65.1850
" />
<path d="M129.8257 65.1850
L129.7781 65.1374
" />
</g><g transform="rotate(-90.000000 133.4500 69.7177)">
<text x="133.4500" y="70.2177"
textLength="2.1274" font-size="1.3333" lengthAdjust="spacingAndGlyphs"
text-anchor="middle" opacity="0">C1</text>
</g>
<g class="stroked-text"><desc>C1</desc>
<path d="M133.8174 69.8843
L133.8650 69.9320
" />
<path d="M133.8650 69.9320
L133.9126 70.0748
" />
<path d="M133.9126 70.0748
L133.9126 70.1701
" />
<path d="M133.9126 70.1701
L133.8650 70.3129
" />
<path d="M133.8650 70.3129
L133.7698 70.4082
" />
<path d="M133.7698 70.4082
L133.6745 70.4558
" />
<path d="M133.6745 70.4558
L133.4840 70.5034
" />
<path d="M133.4840 70.5034
L133.3412 70.5034
" />
<path d="M133.3412 70.5034
L133.1507 70.4558
" />
<path d="M133.1507 70.4558
L133.0555 70.4082
" />
<path d="M133.0555 70.4082
L132.9602 70.3129
" />
<path d="M132.9602 70.3129
L132.9126 70.1701
" />
<path d="M132.9126 70.1701
L132.9126 70.0748
" />
<path d="M132.9126 70.0748
L132.9602 69.9320
" />
<path d="M132.9602 69.9320
L133.0079 69.8843
" />
<path d="M133.9126 68.9320
L133.9126 69.5034
" />
<path d="M133.9126 69.2177
L132.9126 69.2177
" />
<path d="M132.9126 69.2177
L133.0555 69.3129
" />
<path d="M133.0555 69.3129
L133.1507 69.4082
" />
<path d="M133.1507 69.4082
L133.1983 69.5034
" />
</g><text x="141.4084" y="89.4164"
textLength="2.1274" font-size="1.3333" lengthAdjust="spacingAndGlyphs"
text-anchor="middle" opacity="0">C2</text>
<g class="stroked-text"><desc>C2</desc>
<path d="M141.2417 89.2838
L141.1941 89.3314
" />
<path d="M141.1941 89.3314
L141.0513 89.3790
" />
<path d="M141.0513 89.3790
L140.9560 89.3790
" />
<path d="M140.9560 89.3790
L140.8132 89.3314
" />
<path d="M140.8132 89.3314
L140.7179 89.2362
" />
<path d="M140.7179 89.2362
L140.6703 89.1409
" />
<path d="M140.6703 89.1409
L140.6227 88.9504
" />
<path d="M140.6227 88.9504
L140.6227 88.8076
" />
<path d="M140.6227 88.8076
L140.6703 88.6171
" />
<path d="M140.6703 88.6171
L140.7179 88.5219
" />
<path d="M140.7179 88.5219
L140.8132 88.4266
" />
<path d="M140.8132 88.4266
L140.9560 88.3790
" />
<path d="M140.9560 88.3790
L141.0513 88.3790
" />
<path d="M141.0513 88.3790
L141.1941 88.4266
" />
<path d="M141.1941 88.4266
L141.2417 88.4742
" />
<path d="M141.6227 88.4742
L141.6703 88.4266
" />
<path d="M141.6703 88.4266
L141.7655 88.3790
" />
<path d="M141.7655 88.3790
L142.0036 88.3790
" />
<path d="M142.0036 88.3790
L142.0989 88.4266
" />
<path d="M142.0989 88.4266
L142.1465 88.4742
" />
<path d="M142.1465 88.4742
L142.1941 88.5695
" />
<path d="M142.1941 88.5695
L142.1941 88.6647
" />
<path d="M142.1941 88.6647
L142.1465 88.8076
" />
<path d="M142.1465 88.8076
L141.5751 89.3790
" />
<path d="M141.5751 89.3790
L142.1941 89.3790
" />
</g><text x="160.0200" y="87.0700"
textLength="3.2226" font-size="1.3333" lengthAdjust="spacingAndGlyphs"
text-anchor="middle" opacity="0">SW3</text>
<g class="stroked-text"><desc>SW3</desc>
<path d="M158.6867 86.9850
L158.8295 87.0326
" />
<path d="M158.8295 87.0326
L159.0676 87.0326
" />
<path d="M159.0676 87.0326
L159.1629 86.9850
" />
<path d="M159.1629 86.9850
L159.2105 86.9374
" />
<path d="M159.2105 86.9374
L159.2581 86.8421
" />
<path d="M159.2581 86.8421
L159.2581 86.7469
" />
<path d="M159.2581 86.7469
L159.2105 86.6517
" />
<path d="M159.2105 86.6517
L159.1629 86.6040
" />
<path d="M159.1629 86.6040
L159.0676 86.5564
" />
<path d="M159.0676 86.5564
L158.8771 86.5088
" />
<path d="M158.8771 86.5088
L158.7819 86.4612
" />
<path d="M158.7819 86.4612
L158.7343 86.4136
" />
<path d="M158.7343 86.4136
L158.6867 86.3183
" />
<path d="M158.6867 86.3183
L158.6867 86.2231
" />
<path d="M158.6867 86.2231
L158.7343 86.1279
" />
<path d="M158.7343 86.1279
L158.7819 86.0802
" />
<path d="M158.7819 86.0802
L158.8771 86.0326
" />
<path d="M158.8771 86.0326
L159.1152 86.0326
" />
<path d="M159.1152 86.0326
L159.2581 86.0802
" />
<path d="M159.5914 86.0326
L159.8295 87.0326
" />
<path d="M159.8295 87.0326
L160.0200 86.3183
" />
<path d="M160.0200 86.3183
L160.2105 87.0326
" />
<path d="M160.2105 87.0326
L160.4486 86.0326
" />
<path d="M160.7343 86.0326
L161.3533 86.0326
" />
<path d="M161.3533 86.0326
L161.0200 86.4136
" />
<path d="M161.0200 86.4136
L161.1629 86.4136
" />
<path d="M161.1629 86.4136
L161.2581 86.4612
" />
<path d="M161.2581 86.4612
L161.3057 86.5088
" />
<path d="M161.3057 86.5088
L161.3533 86.6040
" />
<path d="M161.3533 86.6040
L161.3533 86.8421
" />
<path d="M161.3533 86.8421
L161.3057 86.9374
" />
<path d="M161.3057 86.9374
L161.2581 86.9850
" />
<path d="M161.2581 86.9850
L161.1629 87.0326
" />
<path d="M161.1629 87.0326
L160.8771 87.0326
" />
<path d="M160.8771 87.0326
L160.7819 86.9850
" />
<path d="M160.7819 86.9850
L160.7343 86.9374
" />
</g><text x="158.7500" y="65.2700"
textLength="2.1750" font-size="1.3333" lengthAdjust="spacingAndGlyphs"
text-anchor="middle" opacity="0">H1</text>
<g class="stroked-text"><desc>H1</desc>
<path d="M157.9881 65.2326
L157.9881 64.2326
" />
<path d="M157.9881 64.7088
L158.5595 64.7088
" />
<path d="M158.5595 65.2326
L158.5595 64.2326
" />
<path d="M159.5595 65.2326
L158.9881 65.2326
" />
<path d="M159.2738 65.2326
L159.2738 64.2326
" />
<path d="M159.2738 64.2326
L159.1786 64.3755
" />
<path d="M159.1786 64.3755
L159.0833 64.4707
" />
<path d="M159.0833 64.4707
L158.9881 64.5183
" />
</g><text x="127.0000" y="106.5200"
textLength="2.1750" font-size="1.3333" lengthAdjust="spacingAndGlyphs"
text-anchor="middle" opacity="0">H6</text>
<g class="stroked-text"><desc>H6</desc>
<path d="M126.2381 106.4826
L126.2381 105.4826
" />
<path d="M126.2381 105.9588
L126.8095 105.9588
" />
<path d="M126.8095 106.4826
L126.8095 105.4826
" />
<path d="M127.7143 105.4826
L127.5238 105.4826
" />
<path d="M127.5238 105.4826
L127.4286 105.5302
" />
<path d="M127.4286 105.5302
L127.3810 105.5779
" />
<path d="M127.3810 105.5779
L127.2857 105.7207
" />
<path d="M127.2857 105.7207
L127.2381 105.9112
" />
<path d="M127.2381 105.9112
L127.2381 106.2921
" />
<path d="M127.2381 106.2921
L127.2857 106.3874
" />
<path d="M127.2857 106.3874
L127.3333 106.4350
" />
<path d="M127.3333 106.4350
L127.4286 106.4826
" />
<path d="M127.4286 106.4826
L127.6190 106.4826
" />
<path d="M127.6190 106.4826
L127.7143 106.4350
" />
<path d="M127.7143 106.4350
L127.7619 106.3874
" />
<path d="M127.7619 106.3874
L127.8095 106.2921
" />
<path d="M127.8095 106.2921
L127.8095 106.0540
" />
<path d="M127.8095 106.0540
L127.7619 105.9588
" />
<path d="M127.7619 105.9588
L127.7143 105.9112
" />
<path d="M127.7143 105.9112
L127.6190 105.8636
" />
<path d="M127.6190 105.8636
L127.4286 105.8636
" />
<path d="M127.4286 105.8636
L127.3333 105.9112
" />
<path d="M127.3333 105.9112
L127.2857 105.9588
" />
<path d="M127.2857 105.9588
L127.2381 106.0540
" />
</g><g transform="rotate(-90.000000 156.8600 101.6000)">
<text x="156.8600" y="102.1000"
textLength="2.1274" font-size="1.3333" lengthAdjust="spacingAndGlyphs"
text-anchor="middle" opacity="0">R4</text>
</g>
<g class="stroked-text"><desc>R4</desc>
<path d="M157.3226 101.7667
L156.8464 102.1000
" />
<path d="M157.3226 102.3381
L156.3226 102.3381
" />
<path d="M156.3226 102.3381
L156.3226 101.9571
" />
<path d="M156.3226 101.9571
L156.3702 101.8619
" />
<path d="M156.3702 101.8619
L156.4179 101.8143
" />
<path d="M156.4179 101.8143
L156.5131 101.7667
" />
<path d="M156.5131 101.7667
L156.6560 101.7667
" />
<path d="M156.6560 101.7667
L156.7512 101.8143
" />
<path d="M156.7512 101.8143
L156.7988 101.8619
" />
<path d="M156.7988 101.8619
L156.8464 101.9571
" />
<path d="M156.8464 101.9571
L156.8464 102.3381
" />
<path d="M156.6560 100.9095
L157.3226 100.9095
" />
<path d="M156.2750 101.1476
L156.9893 101.3857
" />
<path d="M156.9893 101.3857
L156.9893 100.7667
" />
</g><text x="152.4000" y="86.2400"
textLength="2.1274" font-size="1.3333" lengthAdjust="spacingAndGlyphs"
text-anchor="middle" opacity="0">R3</text>
<g class="stroked-text"><desc>R3</desc>
<path d="M152.2333 86.2026
L151.9000 85.7264
" />
<path d="M151.6619 86.2026
L151.6619 85.2026
" />
<path d="M151.6619 85.2026
L152.0429 85.2026
" />
<path d="M152.0429 85.2026
L152.1381 85.2502
" />
<path d="M152.1381 85.2502
L152.1857 85.2979
" />
<path d="M152.1857 85.2979
L152.2333 85.3931
" />
<path d="M152.2333 85.3931
L152.2333 85.5360
" />
<path d="M152.2333 85.5360
L152.1857 85.6312
" />
<path d="M152.1857 85.6312
L152.1381 85.6788
" />
<path d="M152.1381 85.6788
L152.0429 85.7264
" />
<path d="M152.0429 85.7264
L151.6619 85.7264
" />
<path d="M152.5667 85.2026
L153.1857 85.2026
" />
<path d="M153.1857 85.2026
L152.8524 85.5836
" />
<path d="M152.8524 85.5836
L152.9952 85.5836
" />
<path d="M152.9952 85.5836
L153.0905 85.6312
" />
<path d="M153.0905 85.6312
L153.1381 85.6788
" />
<path d="M153.1381 85.6788
L153.1857 85.7740
" />
<path d="M153.1857 85.7740
L153.1857 86.0121
" />
<path d="M153.1857 86.0121
L153.1381 86.1074
" />
<path d="M153.1381 86.1074
L153.0905 86.1550
" />
<path d="M153.0905 86.1550
L152.9952 86.2026
" />
<path d="M152.9952 86.2026
L152.7095 86.2026
" />
<path d="M152.7095 86.2026
L152.6143 86.1550
" />
<path d="M152.6143 86.1550
L152.5667 86.1074
" />
</g><text x="127.0000" y="86.6500"
textLength="1.8893" font-size="1.3333" lengthAdjust="spacingAndGlyphs"
text-anchor="middle" opacity="0">J2</text>
<g class="stroked-text"><desc>J2</desc>
<path d="M126.6667 85.6126
L126.6667 86.3269
" />
<path d="M126.6667 86.3269
L126.6190 86.4698
" />
<path d="M126.6190 86.4698
L126.5238 86.5650
" />
<path d="M126.5238 86.5650
L126.3810 86.6126
" />
<path d="M126.3810 86.6126
L126.2857 86.6126
" />
<path d="M127.0952 85.7079
L127.1429 85.6602
" />
<path d="M127.1429 85.6602
L127.2381 85.6126
" />
<path d="M127.2381 85.6126
L127.4762 85.6126
" />
<path d="M127.4762 85.6126
L127.5714 85.6602
" />
<path d="M127.5714 85.6602
L127.6190 85.7079
" />
<path d="M127.6190 85.7079
L127.6667 85.8031
" />
<path d="M127.6667 85.8031
L127.6667 85.8983
" />
<path d="M127.6667 85.8983
L127.6190 86.0412
" />
<path d="M127.6190 86.0412
L127.0476 86.6126
" />
<path d="M127.0476 86.6126
L127.6667 86.6126
" />
</g><g transform="rotate(-90.000000 157.4800 95.2500)">
<text x="157.4800" y="95.7500"
textLength="2.1750" font-size="1.3333" lengthAdjust="spacingAndGlyphs"
text-anchor="middle" opacity="0">Q2</text>
</g>
<g class="stroked-text"><desc>Q2</desc>
<path d="M158.0379 95.3452
L157.9902 95.4405
" />
<path d="M157.9902 95.4405
L157.8950 95.5357
" />
<path d="M157.8950 95.5357
L157.7521 95.6786
" />
<path d="M157.7521 95.6786
L157.7045 95.7738
" />
<path d="M157.7045 95.7738
L157.7045 95.8690
" />
<path d="M157.9426 95.8214
L157.8950 95.9167
" />
<path d="M157.8950 95.9167
L157.7998 96.0119
" />
<path d="M157.7998 96.0119
L157.6093 96.0595
" />
<path d="M157.6093 96.0595
L157.2760 96.0595
" />
<path d="M157.2760 96.0595
L157.0855 96.0119
" />
<path d="M157.0855 96.0119
L156.9902 95.9167
" />
<path d="M156.9902 95.9167
L156.9426 95.8214
" />
<path d="M156.9426 95.8214
L156.9426 95.6310
" />
<path d="M156.9426 95.6310
L156.9902 95.5357
" />
<path d="M156.9902 95.5357
L157.0855 95.4405
" />
<path d="M157.0855 95.4405
L157.2760 95.3929
" />
<path d="M157.2760 95.3929
L157.6093 95.3929
" />
<path d="M157.6093 95.3929
L157.7998 95.4405
" />
<path d="M157.7998 95.4405
L157.8950 95.5357
" />
<path d="M157.8950 95.5357
L157.9426 95.6310
" />
<path d="M157.9426 95.6310
L157.9426 95.8214
" />
<path d="M157.0379 95.0119
L156.9902 94.9643
" />
<path d="M156.9902 94.9643
L156.9426 94.8690
" />
<path d="M156.9426 94.8690
L156.9426 94.6310
" />
<path d="M156.9426 94.6310
L156.9902 94.5357
" />
<path d="M156.9902 94.5357
L157.0379 94.4881
" />
<path d="M157.0379 94.4881
L157.1331 94.4405
" />
<path d="M157.1331 94.4405
L157.2283 94.4405
" />
<path d="M157.2283 94.4405
L157.3712 94.4881
" />
<path d="M157.3712 94.4881
L157.9426 95.0595
" />
<path d="M157.9426 95.0595
L157.9426 94.4405
" />
</g><text x="129.5400" y="91.5800"
textLength="2.1750" font-size="1.3333" lengthAdjust="spacingAndGlyphs"
text-anchor="middle" opacity="0">H3</text>
<g class="stroked-text"><desc>H3</desc>
<path d="M128.7781 91.5426
L128.7781 90.5426
" />
<path d="M128.7781 91.0188
L129.3495 91.0188
" />
<path d="M129.3495 91.5426
L129.3495 90.5426
" />
<path d="M129.7305 90.5426
L130.3495 90.5426
" />
<path d="M130.3495 90.5426
L130.0162 90.9236
" />
<path d="M130.0162 90.9236
L130.1590 90.9236
" />
<path d="M130.1590 90.9236
L130.2543 90.9712
" />
<path d="M130.2543 90.9712
L130.3019 91.0188
" />
<path d="M130.3019 91.0188
L130.3495 91.1140
" />
<path d="M130.3495 91.1140
L130.3495 91.3521
" />
<path d="M130.3495 91.3521
L130.3019 91.4474
" />
<path d="M130.3019 91.4474
L130.2543 91.4950
" />
<path d="M130.2543 91.4950
L130.1590 91.5426
" />
<path d="M130.1590 91.5426
L129.8733 91.5426
" />
<path d="M129.8733 91.5426
L129.7781 91.4950
" />
<path d="M129.7781 91.4950
L129.7305 91.4474
" />
</g><text x="139.7000" y="92.5600"
textLength="2.1274" font-size="1.3333" lengthAdjust="spacingAndGlyphs"
text-anchor="middle" opacity="0">R2</text>
<g class="stroked-text"><desc>R2</desc>
<path d="M139.5333 92.5226
L139.2000 92.0464
" />
<path d="M138.9619 92.5226
L138.9619 91.5226
" />
<path d="M138.9619 91.5226
L139.3429 91.5226
" />
<path d="M139.3429 91.5226
L139.4381 91.5702
" />
<path d="M139.4381 91.5702
L139.4857 91.6179
" />
<path d="M139.4857 91.6179
L139.5333 91.7131
" />
<path d="M139.5333 91.7131
L139.5333 91.8560
" />
<path d="M139.5333 91.8560
L139.4857 91.9512
" />
<path d="M139.4857 91.9512
L139.4381 91.9988
" />
<path d="M139.4381 91.9988
L139.3429 92.0464
" />
<path d="M139.3429 92.0464
L138.9619 92.0464
" />
<path d="M139.9143 91.6179
L139.9619 91.5702
" />
<path d="M139.9619 91.5702
L140.0571 91.5226
" />
<path d="M140.0571 91.5226
L140.2952 91.5226
" />
<path d="M140.2952 91.5226
L140.3905 91.5702
" />
<path d="M140.3905 91.5702
L140.4381 91.6179
" />
<path d="M140.4381 91.6179
L140.4857 91.7131
" />
<path d="M140.4857 91.7131
L140.4857 91.8083
" />
<path d="M140.4857 91.8083
L140.4381 91.9512
" />
<path d="M140.4381 91.9512
L139.8667 92.5226
" />
<path d="M139.8667 92.5226
L140.4857 92.5226
" />
</g><text x="144.7800" y="102.3100"
textLength="3.2226" font-size="1.3333" lengthAdjust="spacingAndGlyphs"
text-anchor="middle" opacity="0">SW2</text>
<g class="stroked-text"><desc>SW2</desc>
<path d="M143.4467 102.2250
L143.5895 102.2726
" />
<path d="M143.5895 102.2726
L143.8276 102.2726
" />
<path d="M143.8276 102.2726
L143.9229 102.2250
" />
<path d="M143.9229 102.2250
L143.9705 102.1774
" />
<path d="M143.9705 102.1774
L144.0181 102.0821
" />
<path d="M144.0181 102.0821
L144.0181 101.9869
" />
<path d="M144.0181 101.9869
L143.9705 101.8917
" />
<path d="M143.9705 101.8917
L143.9229 101.8440
" />
<path d="M143.9229 101.8440
L143.8276 101.7964
" />
<path d="M143.8276 101.7964
L143.6371 101.7488
" />
<path d="M143.6371 101.7488
L143.5419 101.7012
" />
<path d="M143.5419 101.7012
L143.4943 101.6536
" />
<path d="M143.4943 101.6536
L143.4467 101.5583
" />
<path d="M143.4467 101.5583
L143.4467 101.4631
" />
<path d="M143.4467 101.4631
L143.4943 101.3679
" />
<path d="M143.4943 101.3679
L143.5419 101.3202
" />
<path d="M143.5419 101.3202
L143.6371 101.2726
" />
<path d="M143.6371 101.2726
L143.8752 101.2726
" />
<path d="M143.8752 101.2726
L144.0181 101.3202
" />
<path d="M144.3514 101.2726
L144.5895 102.2726
" />
<path d="M144.5895 102.2726
L144.7800 101.5583
" />
<path d="M144.7800 101.5583
L144.9705 102.2726
" />
<path d="M144.9705 102.2726
L145.2086 101.2726
" />
<path d="M145.5419 101.3679
L145.5895 101.3202
" />
<path d="M145.5895 101.3202
L145.6848 101.2726
" />
<path d="M145.6848 101.2726
L145.9229 101.2726
" />
<path d="M145.9229 101.2726
L146.0181 101.3202
" />
<path d="M146.0181 101.3202
L146.0657 101.3679
" />
<path d="M146.0657 101.3679
L146.1133 101.4631
" />
<path d="M146.1133 101.4631
L146.1133 101.5583
" />
<path d="M146.1133 101.5583
L146.0657 101.7012
" />
<path d="M146.0657 101.7012
L145.4943 102.2726
" />
<path d="M145.4943 102.2726
L146.1133 102.2726
" />
</g><text x="161.2900" y="106.5200"
textLength="2.1750" font-size="1.3333" lengthAdjust="spacingAndGlyphs"
text-anchor="middle" opacity="0">H2</text>
<g class="stroked-text"><desc>H2</desc>
<path d="M160.5281 106.4826
L160.5281 105.4826
" />
<path d="M160.5281 105.9588
L161.0995 105.9588
" />
<path d="M161.0995 106.4826
L161.0995 105.4826
" />
<path d="M161.5281 105.5779
L161.5757 105.5302
" />
<path d="M161.5757 105.5302
L161.6710 105.4826
" />
<path d="M161.6710 105.4826
L161.9090 105.4826
" />
<path d="M161.9090 105.4826
L162.0043 105.5302
" />
<path d="M162.0043 105.5302
L162.0519 105.5779
" />
<path d="M162.0519 105.5779
L162.0995 105.6731
" />
<path d="M162.0995 105.6731
L162.0995 105.7683
" />
<path d="M162.0995 105.7683
L162.0519 105.9112
" />
<path d="M162.0519 105.9112
L161.4805 106.4826
" />
<path d="M161.4805 106.4826
L162.0995 106.4826
" />
</g><g transform="rotate(-90.000000 149.2100 101.6000)">
<text x="149.2100" y="102.1000"
textLength="2.1274" font-size="1.3333" lengthAdjust="spacingAndGlyphs"
text-anchor="middle" opacity="0">R5</text>
</g>
<g class="stroked-text"><desc>R5</desc>
<path d="M149.6726 101.7667
L149.1964 102.1000
" />
<path d="M149.6726 102.3381
L148.6726 102.3381
" />
<path d="M148.6726 102.3381
L148.6726 101.9571
" />
<path d="M148.6726 101.9571
L148.7202 101.8619
" />
<path d="M148.7202 101.8619
L148.7679 101.8143
" />
<path d="M148.7679 101.8143
L148.8631 101.7667
" />
<path d="M148.8631 101.7667
L149.0060 101.7667
" />
<path d="M149.0060 101.7667
L149.1012 101.8143
" />
<path d="M149.1012 101.8143
L149.1488 101.8619
" />
<path d="M149.1488 101.8619
L149.1964 101.9571
" />
<path d="M149.1964 101.9571
L149.1964 102.3381
" />
<path d="M148.6726 100.8619
L148.6726 101.3381
" />
<path d="M148.6726 101.3381
L149.1488 101.3857
" />
<path d="M149.1488 101.3857
L149.1012 101.3381
" />
<path d="M149.1012 101.3381
L149.0536 101.2429
" />
<path d="M149.0536 101.2429
L149.0536 101.0048
" />
<path d="M149.0536 101.0048
L149.1012 100.9095
" />
<path d="M149.1012 100.9095
L149.1488 100.8619
" />
<path d="M149.1488 100.8619
L149.2440 100.8143
" />
<path d="M149.2440 100.8143
L149.4821 100.8143
" />
<path d="M149.4821 100.8143
L149.5774 100.8619
" />
<path d="M149.5774 100.8619
L149.6250 100.9095
" />
<path d="M149.6250 100.9095
L149.6726 101.0048
" />
<path d="M149.6726 101.0048
L149.6726 101.2429
" />
<path d="M149.6726 101.2429
L149.6250 101.3381
" />
<path d="M149.6250 101.3381
L149.5774 101.3857
" />
</g><text x="142.2800" y="102.0600"
textLength="2.1274" font-size="1.3333" lengthAdjust="spacingAndGlyphs"
text-anchor="middle" opacity="0">C3</text>
<g class="stroked-text"><desc>C3</desc>
<path d="M142.1133 101.9274
L142.0657 101.9750
" />
<path d="M142.0657 101.9750
L141.9229 102.0226
" />
<path d="M141.9229 102.0226
L141.8276 102.0226
" />
<path d="M141.8276 102.0226
L141.6848 101.9750
" />
<path d="M141.6848 101.9750
L141.5895 101.8798
" />
<path d="M141.5895 101.8798
L141.5419 101.7845
" />
<path d="M141.5419 101.7845
L141.4943 101.5940
" />
<path d="M141.4943 101.5940
L141.4943 101.4512
" />
<path d="M141.4943 101.4512
L141.5419 101.2607
" />
<path d="M141.5419 101.2607
L141.5895 101.1655
" />
<path d="M141.5895 101.1655
L141.6848 101.0702
" />
<path d="M141.6848 101.0702
L141.8276 101.0226
" />
<path d="M141.8276 101.0226
L141.9229 101.0226
" />
<path d="M141.9229 101.0226
L142.0657 101.0702
" />
<path d="M142.0657 101.0702
L142.1133 101.1179
" />
<path d="M142.4467 101.0226
L143.0657 101.0226
" />
<path d="M143.0657 101.0226
L142.7324 101.4036
" />
<path d="M142.7324 101.4036
L142.8752 101.4036
" />
<path d="M142.8752 101.4036
L142.9705 101.4512
" />
<path d="M142.9705 101.4512
L143.0181 101.4988
" />
<path d="M143.0181 101.4988
L143.0657 101.5940
" />
<path d="M143.0657 101.5940
L143.0657 101.8321
" />
<path d="M143.0657 101.8321
L143.0181 101.9274
" />
<path d="M143.0181 101.9274
L142.9705 101.9750
" />
<path d="M142.9705 101.9750
L142.8752 102.0226
" />
<path d="M142.8752 102.0226
L142.5895 102.0226
" />
<path d="M142.5895 102.0226
L142.4943 101.9750
" />
<path d="M142.4943 101.9750
L142.4467 101.9274
" />
</g></g>
<g style="fill:#000000; fill-opacity:0.0; 
stroke:#000000; stroke-width:0.1200; stroke-opacity:1; 
stroke-linecap:round; stroke-linejoin:round;">
<path d="M158.7500 98.7300
L158.7500 99.6800
" />
<path d="M159.6700 99.6800
L157.8300 99.6800
" />
<path d="M157.8300 99.6800
L157.8300 103.5200
" />
<path d="M159.6700 103.5200
L159.6700 99.6800
" />
<path d="M157.8300 103.5200
L159.6700 103.5200
" />
<path d="M158.7500 104.4700
L158.7500 103.5200
" />
<path d="M138.3700 80.0700
L138.3700 78.7400
" />
<path d="M139.7000 80.0700
L138.3700 80.0700
" />
<path d="M140.9700 80.0700
L143.5700 80.0700
" />
<path d="M140.9700 80.0700
L140.9700 77.4100
" />
<path d="M143.5700 80.0700
L143.5700 77.4100
" />
<path d="M140.9700 77.4100
L143.5700 77.4100
" />
<path d="M148.5120 80.8659
L149.4029 79.9749
" />
<path d="M147.7341 80.0880
L148.5120 80.8659
" />
<path d="M148.6251 79.1971
L147.7341 80.0880
" />
<path d="M149.4026 79.9747 A4.8200 4.8200 0.0 1 0 148.6251 79.1971" />
<path d="M128.3300 76.2600
L127.0000 76.2600
" />
<path d="M128.3300 74.9300
L128.3300 76.2600
" />
<path d="M128.3300 73.6600
L128.3300 71.0600
" />
<path d="M128.3300 73.6600
L125.6700 73.6600
" />
<path d="M128.3300 71.0600
L125.6700 71.0600
" />
<path d="M125.6700 73.6600
L125.6700 71.0600
" />
<path d="M149.5300 68.5800
L150.4800 68.5800
" />
<path d="M150.4800 67.6600
L150.4800 69.5000
" />
<path d="M150.4800 69.5000
L154.3200 69.5000
" />
<path d="M154.3200 67.6600
L150.4800 67.6600
" />
<path d="M154.3200 69.5000
L154.3200 67.6600
" />
<path d="M155.2700 68.5800
L154.3200 68.5800
" />
<path d="M136.8250 75.1973
L136.8250 74.1973
" />
<path d="M136.3250 74.6973
L137.3250 74.6973
" />
<path d="M134.6200 69.7177
L144.7800 69.7177
" />
<path d="M134.6200 69.6777
L144.7800 69.6777
" />
<path d="M134.6200 69.6377
L144.7800 69.6377
" />
<path d="M134.6210 69.5977
L144.7790 69.5977
" />
<path d="M134.6220 69.5577
L144.7780 69.5577
" />
<path d="M134.6230 69.5177
L144.7770 69.5177
" />
<path d="M134.6250 69.4777
L144.7750 69.4777
" />
<path d="M134.6270 69.4377
L144.7730 69.4377
" />
<path d="M134.6300 69.3977
L144.7700 69.3977
" />
<path d="M134.6320 69.3577
L144.7680 69.3577
" />
<path d="M134.6350 69.3177
L144.7650 69.3177
" />
<path d="M134.6380 69.2777
L144.7620 69.2777
" />
<path d="M134.6420 69.2377
L144.7580 69.2377
" />
<path d="M134.6460 69.1977
L144.7540 69.1977
" />
<path d="M134.6500 69.1577
L144.7500 69.1577
" />
<path d="M134.6550 69.1177
L144.7450 69.1177
" />
<path d="M134.6600 69.0777
L144.7400 69.0777
" />
<path d="M134.6650 69.0377
L144.7350 69.0377
" />
<path d="M134.6700 68.9967
L144.7300 68.9967
" />
<path d="M134.6760 68.9567
L144.7240 68.9567
" />
<path d="M134.6820 68.9167
L144.7180 68.9167
" />
<path d="M134.6890 68.8767
L144.7110 68.8767
" />
<path d="M134.6960 68.8367
L144.7040 68.8367
" />
<path d="M134.7030 68.7967
L144.6970 68.7967
" />
<path d="M134.7100 68.7567
L144.6900 68.7567
" />
<path d="M134.7180 68.7167
L144.6820 68.7167
" />
<path d="M134.7260 68.6767
L144.6740 68.6767
" />
<path d="M134.7350 68.6367
L144.6650 68.6367
" />
<path d="M134.7440 68.5967
L144.6560 68.5967
" />
<path d="M134.7530 68.5567
L144.6470 68.5567
" />
<path d="M134.7620 68.5167
L144.6380 68.5167
" />
<path d="M134.7720 68.4767
L144.6280 68.4767
" />
<path d="M134.7820 68.4367
L138.4590 68.4367
" />
<path d="M140.9410 68.4367
L144.6180 68.4367
" />
<path d="M134.7930 68.3967
L138.4590 68.3967
" />
<path d="M140.9410 68.3967
L144.6070 68.3967
" />
<path d="M134.8030 68.3567
L138.4590 68.3567
" />
<path d="M140.9410 68.3567
L144.5970 68.3567
" />
<path d="M134.8150 68.3167
L138.4590 68.3167
" />
<path d="M140.9410 68.3167
L144.5850 68.3167
" />
<path d="M134.8260 68.2767
L138.4590 68.2767
" />
<path d="M140.9410 68.2767
L144.5740 68.2767
" />
<path d="M134.8380 68.2367
L138.4590 68.2367
" />
<path d="M140.9410 68.2367
L144.5620 68.2367
" />
<path d="M134.8500 68.1967
L138.4590 68.1967
" />
<path d="M140.9410 68.1967
L144.5500 68.1967
" />
<path d="M134.8630 68.1567
L138.4590 68.1567
" />
<path d="M140.9410 68.1567
L144.5370 68.1567
" />
<path d="M134.8760 68.1167
L138.4590 68.1167
" />
<path d="M140.9410 68.1167
L144.5240 68.1167
" />
<path d="M134.8890 68.0767
L138.4590 68.0767
" />
<path d="M140.9410 68.0767
L144.5110 68.0767
" />
<path d="M134.9030 68.0367
L138.4590 68.0367
" />
<path d="M140.9410 68.0367
L144.4970 68.0367
" />
<path d="M134.9170 67.9967
L138.4590 67.9967
" />
<path d="M140.9410 67.9967
L144.4830 67.9967
" />
<path d="M134.9320 67.9567
L138.4590 67.9567
" />
<path d="M140.9410 67.9567
L144.4680 67.9567
" />
<path d="M134.9460 67.9167
L138.4590 67.9167
" />
<path d="M140.9410 67.9167
L144.4540 67.9167
" />
<path d="M134.9620 67.8767
L138.4590 67.8767
" />
<path d="M140.9410 67.8767
L144.4380 67.8767
" />
<path d="M134.9770 67.8367
L138.4590 67.8367
" />
<path d="M140.9410 67.8367
L144.4230 67.8367
" />
<path d="M134.9930 67.7967
L138.4590 67.7967
" />
<path d="M140.9410 67.7967
L144.4070 67.7967
" />
<path d="M135.0100 67.7567
L138.4590 67.7567
" />
<path d="M140.9410 67.7567
L144.3900 67.7567
" />
<path d="M135.0260 67.7167
L138.4590 67.7167
" />
<path d="M140.9410 67.7167
L144.3740 67.7167
" />
<path d="M135.0430 67.6767
L138.4590 67.6767
" />
<path d="M140.9410 67.6767
L144.3570 67.6767
" />
<path d="M135.0610 67.6367
L138.4590 67.6367
" />
<path d="M140.9410 67.6367
L144.3390 67.6367
" />
<path d="M135.0790 67.5967
L138.4590 67.5967
" />
<path d="M140.9410 67.5967
L144.3210 67.5967
" />
<path d="M135.0970 67.5567
L138.4590 67.5567
" />
<path d="M140.9410 67.5567
L144.3030 67.5567
" />
<path d="M135.1160 67.5167
L138.4590 67.5167
" />
<path d="M140.9410 67.5167
L144.2840 67.5167
" />
<path d="M135.1360 67.4767
L138.4590 67.4767
" />
<path d="M140.9410 67.4767
L144.2640 67.4767
" />
<path d="M135.1550 67.4367
L138.4590 67.4367
" />
<path d="M140.9410 67.4367
L144.2450 67.4367
" />
<path d="M135.1750 67.3967
L138.4590 67.3967
" />
<path d="M140.9410 67.3967
L144.2250 67.3967
" />
<path d="M135.1960 67.3567
L138.4590 67.3567
" />
<path d="M140.9410 67.3567
L144.2040 67.3567
" />
<path d="M135.2170 67.3167
L138.4590 67.3167
" />
<path d="M140.9410 67.3167
L144.1830 67.3167
" />
<path d="M135.2380 67.2767
L138.4590 67.2767
" />
<path d="M140.9410 67.2767
L144.1620 67.2767
" />
<path d="M135.2600 67.2367
L138.4590 67.2367
" />
<path d="M140.9410 67.2367
L144.1400 67.2367
" />
<path d="M135.2830 67.1967
L138.4590 67.1967
" />
<path d="M140.9410 67.1967
L144.1170 67.1967
" />
<path d="M135.3050 67.1567
L138.4590 67.1567
" />
<path d="M140.9410 67.1567
L144.0950 67.1567
" />
<path d="M135.3290 67.1167
L138.4590 67.1167
" />
<path d="M140.9410 67.1167
L144.0710 67.1167
" />
<path d="M135.3530 67.0767
L138.4590 67.0767
" />
<path d="M140.9410 67.0767
L144.0470 67.0767
" />
<path d="M135.3770 67.0367
L138.4590 67.0367
" />
<path d="M140.9410 67.0367
L144.0230 67.0367
" />
<path d="M135.4020 66.9967
L138.4590 66.9967
" />
<path d="M140.9410 66.9967
L143.9980 66.9967
" />
<path d="M135.4270 66.9567
L138.4590 66.9567
" />
<path d="M140.9410 66.9567
L143.9730 66.9567
" />
<path d="M135.4530 66.9167
L138.4590 66.9167
" />
<path d="M140.9410 66.9167
L143.9470 66.9167
" />
<path d="M135.4790 66.8767
L138.4590 66.8767
" />
<path d="M140.9410 66.8767
L143.9210 66.8767
" />
<path d="M135.5060 66.8367
L138.4590 66.8367
" />
<path d="M140.9410 66.8367
L143.8940 66.8367
" />
<path d="M135.5340 66.7967
L138.4590 66.7967
" />
<path d="M140.9410 66.7967
L143.8660 66.7967
" />
<path d="M135.5620 66.7567
L138.4590 66.7567
" />
<path d="M140.9410 66.7567
L143.8380 66.7567
" />
<path d="M135.5900 66.7167
L138.4590 66.7167
" />
<path d="M140.9410 66.7167
L143.8100 66.7167
" />
<path d="M135.6200 66.6767
L138.4590 66.6767
" />
<path d="M140.9410 66.6767
L143.7800 66.6767
" />
<path d="M135.6500 66.6367
L138.4590 66.6367
" />
<path d="M140.9410 66.6367
L143.7500 66.6367
" />
<path d="M135.6800 66.5967
L138.4590 66.5967
" />
<path d="M140.9410 66.5967
L143.7200 66.5967
" />
<path d="M135.7110 66.5567
L138.4590 66.5567
" />
<path d="M140.9410 66.5567
L143.6890 66.5567
" />
<path d="M135.7430 66.5167
L138.4590 66.5167
" />
<path d="M140.9410 66.5167
L143.6570 66.5167
" />
<path d="M135.7750 66.4767
L138.4590 66.4767
" />
<path d="M140.9410 66.4767
L143.6250 66.4767
" />
<path d="M135.8080 66.4367
L138.4590 66.4367
" />
<path d="M140.9410 66.4367
L143.5920 66.4367
" />
<path d="M135.8420 66.3967
L138.4590 66.3967
" />
<path d="M140.9410 66.3967
L143.5580 66.3967
" />
<path d="M135.8760 66.3567
L138.4590 66.3567
" />
<path d="M140.9410 66.3567
L143.5240 66.3567
" />
<path d="M135.9110 66.3167
L138.4590 66.3167
" />
<path d="M140.9410 66.3167
L143.4890 66.3167
" />
<path d="M135.9470 66.2767
L138.4590 66.2767
" />
<path d="M140.9410 66.2767
L143.4530 66.2767
" />
<path d="M135.9840 66.2367
L138.4590 66.2367
" />
<path d="M140.9410 66.2367
L143.4160 66.2367
" />
<path d="M136.0210 66.1967
L138.4590 66.1967
" />
<path d="M140.9410 66.1967
L143.3790 66.1967
" />
<path d="M136.0600 66.1567
L138.4590 66.1567
" />
<path d="M140.9410 66.1567
L143.3400 66.1567
" />
<path d="M136.0990 66.1167
L138.4590 66.1167
" />
<path d="M140.9410 66.1167
L143.3010 66.1167
" />
<path d="M136.1390 66.0767
L138.4590 66.0767
" />
<path d="M140.9410 66.0767
L143.2610 66.0767
" />
<path d="M136.1800 66.0367
L138.4590 66.0367
" />
<path d="M140.9410 66.0367
L143.2200 66.0367
" />
<path d="M136.2220 65.9967
L138.4590 65.9967
" />
<path d="M140.9410 65.9967
L143.1780 65.9967
" />
<path d="M136.2640 65.9567
L143.1360 65.9567
" />
<path d="M136.3080 65.9167
L143.0920 65.9167
" />
<path d="M136.3530 65.8767
L143.0470 65.8767
" />
<path d="M136.3990 65.8367
L143.0010 65.8367
" />
<path d="M136.4460 65.7967
L142.9540 65.7967
" />
<path d="M136.4940 65.7567
L142.9060 65.7567
" />
<path d="M136.5440 65.7167
L142.8560 65.7167
" />
<path d="M136.5940 65.6767
L142.8060 65.6767
" />
<path d="M136.6460 65.6367
L142.7540 65.6367
" />
<path d="M136.7000 65.5967
L142.7000 65.5967
" />
<path d="M136.7550 65.5567
L142.6450 65.5567
" />
<path d="M136.8110 65.5167
L142.5890 65.5167
" />
<path d="M136.8700 65.4767
L142.5300 65.4767
" />
<path d="M136.9300 65.4367
L142.4700 65.4367
" />
<path d="M136.9910 65.3967
L142.4090 65.3967
" />
<path d="M137.0550 65.3567
L142.3450 65.3567
" />
<path d="M137.1210 65.3167
L142.2790 65.3167
" />
<path d="M137.1900 65.2767
L142.2100 65.2767
" />
<path d="M137.2610 65.2367
L142.1390 65.2367
" />
<path d="M137.3350 65.1967
L142.0650 65.1967
" />
<path d="M137.4110 65.1567
L141.9890 65.1567
" />
<path d="M137.4910 65.1167
L141.9090 65.1167
" />
<path d="M137.5750 65.0767
L141.8250 65.0767
" />
<path d="M137.6630 65.0367
L141.7370 65.0367
" />
<path d="M137.7560 64.9967
L141.6440 64.9967
" />
<path d="M137.8540 64.9567
L141.5460 64.9567
" />
<path d="M137.9580 64.9167
L141.4420 64.9167
" />
<path d="M138.0700 64.8767
L141.3300 64.8767
" />
<path d="M138.1900 64.8367
L141.2100 64.8367
" />
<path d="M138.3220 64.7967
L141.0780 64.7967
" />
<path d="M138.4700 64.7567
L140.9300 64.7567
" />
<path d="M138.6380 64.7167
L140.7620 64.7167
" />
<path d="M138.8380 64.6767
L140.5620 64.6767
" />
<path d="M139.1010 64.6367
L140.2990 64.6367
" />
<circle cx="139.7000" cy="69.7177" r="5.1200" /> 
<path d="M144.9000 87.7300
L144.9000 87.4150
" />
<path d="M144.9000 87.7300
L139.6600 87.7300
" />
<path d="M144.9000 85.3050
L144.9000 84.9900
" />
<path d="M144.9000 84.9900
L139.6600 84.9900
" />
<path d="M139.6600 87.7300
L139.6600 87.4150
" />
<path d="M139.6600 85.3050
L139.6600 84.9900
" />
<path d="M158.6900 87.5700
L160.0200 87.5700
" />
<path d="M158.6900 88.9000
L158.6900 87.5700
" />
<path d="M158.6900 90.1700
L158.6900 95.3100
" />
<path d="M158.6900 90.1700
L161.3500 90.1700
" />
<path d="M158.6900 95.3100
L161.3500 95.3100
" />
<path d="M161.3500 90.1700
L161.3500 95.3100
" />
<path d="M154.9400 98.7300
L154.9400 99.6800
" />
<path d="M155.8600 99.6800
L154.0200 99.6800
" />
<path d="M154.0200 99.6800
L154.0200 103.5200
" />
<path d="M155.8600 103.5200
L155.8600 99.6800
" />
<path d="M154.0200 103.5200
L155.8600 103.5200
" />
<path d="M154.9400 104.4700
L154.9400 103.5200
" />
<path d="M155.2700 83.8200
L154.3200 83.8200
" />
<path d="M154.3200 84.7400
L154.3200 82.9000
" />
<path d="M154.3200 82.9000
L150.4800 82.9000
" />
<path d="M150.4800 84.7400
L154.3200 84.7400
" />
<path d="M150.4800 82.9000
L150.4800 84.7400
" />
<path d="M149.5300 83.8200
L150.4800 83.8200
" />
<path d="M128.3300 85.1500
L127.0000 85.1500
" />
<path d="M128.3300 83.8200
L128.3300 85.1500
" />
<path d="M128.3300 82.5500
L128.3300 79.9500
" />
<path d="M128.3300 82.5500
L125.6700 82.5500
" />
<path d="M128.3300 79.9500
L125.6700 79.9500
" />
<path d="M125.6700 82.5500
L125.6700 79.9500
" />
<path d="M156.2880 86.7741
L155.3971 87.6651
" />
<path d="M157.0659 87.5520
L156.2880 86.7741
" />
<path d="M156.1749 88.4429
L157.0659 87.5520
" />
<path d="M155.3974 87.6653 A4.8200 4.8200 0.0 1 0 156.1749 88.4429" />
<path d="M136.8300 93.9800
L137.7800 93.9800
" />
<path d="M137.7800 93.0600
L137.7800 94.9000
" />
<path d="M137.7800 94.9000
L141.6200 94.9000
" />
<path d="M141.6200 93.0600
L137.7800 93.0600
" />
<path d="M141.6200 94.9000
L141.6200 93.0600
" />
<path d="M142.5700 93.9800
L141.6200 93.9800
" />
<path d="M143.4500 102.8100
L144.7800 102.8100
" />
<path d="M143.4500 104.1400
L143.4500 102.8100
" />
<path d="M143.4500 105.4100
L143.4500 108.0100
" />
<path d="M143.4500 105.4100
L146.1100 105.4100
" />
<path d="M143.4500 108.0100
L146.1100 108.0100
" />
<path d="M146.1100 105.4100
L146.1100 108.0100
" />
<path d="M151.1300 104.4700
L151.1300 103.5200
" />
<path d="M150.2100 103.5200
L152.0500 103.5200
" />
<path d="M152.0500 103.5200
L152.0500 99.6800
" />
<path d="M150.2100 99.6800
L150.2100 103.5200
" />
<path d="M152.0500 99.6800
L150.2100 99.6800
" />
<path d="M151.1300 98.7300
L151.1300 99.6800
" />
<path d="M144.9000 100.4300
L144.9000 100.1150
" />
<path d="M144.9000 100.4300
L139.6600 100.4300
" />
<path d="M144.9000 98.0050
L144.9000 97.6900
" />
<path d="M144.9000 97.6900
L139.6600 97.6900
" />
<path d="M139.6600 100.4300
L139.6600 100.1150
" />
<path d="M139.6600 98.0050
L139.6600 97.6900
" />
<g >
</g>
<g >
</g>
<g >
</g>
<g >
</g>
<g >
</g>
<g >
</g>
<g >
</g>
<g >
</g>
<g >
</g>
<g >
</g>
<g >
</g>
<g >
</g>
<g >
</g>
<g >
</g>
<g >
</g>
<g >
</g>
<g >
</g>
<g >
</g>
<g >
</g>
<g >
</g>
<g >
</g>
<g >
</g>
<g >
</g>
<g >
</g>
<g >
</g>
</g>
<g style="fill:#FFFFFF; fill-opacity:0.0; 
stroke:#FFFFFF; stroke-width:0.1200; stroke-opacity:1; 
stroke-linecap:round; stroke-linejoin:round;">
</g>
<g style="fill:#FFFFFF; fill-opacity:1.0000; 
stroke:#FFFFFF; stroke-width:0.0000; stroke-opacity:1; 
stroke-linecap:round; stroke-linejoin:round;">
<circle cx="158.7500" cy="97.7900" r="0.4000" /> 
</g>
<g style="fill:#FFFFFF; fill-opacity:1.0000; 
stroke:#FFFFFF; stroke-width:0.0212; stroke-opacity:1; 
stroke-linecap:round; stroke-linejoin:round;">
</g>
<g style="fill:#FFFFFF; fill-opacity:1.0000; 
stroke:#FFFFFF; stroke-width:0.0000; stroke-opacity:1; 
stroke-linecap:round; stroke-linejoin:round;">
<circle cx="158.7500" cy="105.4100" r="0.4000" /> 
</g>
<g style="fill:#FFFFFF; fill-opacity:1.0000; 
stroke:#FFFFFF; stroke-width:0.0212; stroke-opacity:1; 
stroke-linecap:round; stroke-linejoin:round;">
</g>
<g style="fill:#FFFFFF; fill-opacity:1.0000; 
stroke:#FFFFFF; stroke-width:0.0000; stroke-opacity:1; 
stroke-linecap:round; stroke-linejoin:round;">
<circle cx="139.7000" cy="78.7400" r="0.5000" /> 
</g>
<g style="fill:#FFFFFF; fill-opacity:1.0000; 
stroke:#FFFFFF; stroke-width:0.0212; stroke-opacity:1; 
stroke-linecap:round; stroke-linejoin:round;">
</g>
<g style="fill:#FFFFFF; fill-opacity:1.0000; 
stroke:#FFFFFF; stroke-width:0.0000; stroke-opacity:1; 
stroke-linecap:round; stroke-linejoin:round;">
<circle cx="142.2400" cy="78.7400" r="0.5000" /> 
</g>
<g style="fill:#FFFFFF; fill-opacity:1.0000; 
stroke:#FFFFFF; stroke-width:0.0212; stroke-opacity:1; 
stroke-linecap:round; stroke-linejoin:round;">
</g>
<g style="fill:#FFFFFF; fill-opacity:1.0000; 
stroke:#FFFFFF; stroke-width:0.0000; stroke-opacity:1; 
stroke-linecap:round; stroke-linejoin:round;">
<circle cx="152.4000" cy="78.7400" r="0.4000" /> 
</g>
<g style="fill:#FFFFFF; fill-opacity:1.0000; 
stroke:#FFFFFF; stroke-width:0.0212; stroke-opacity:1; 
stroke-linecap:round; stroke-linejoin:round;">
</g>
<g style="fill:#FFFFFF; fill-opacity:1.0000; 
stroke:#FFFFFF; stroke-width:0.0000; stroke-opacity:1; 
stroke-linecap:round; stroke-linejoin:round;">
<circle cx="154.9400" cy="76.2000" r="0.4000" /> 
</g>
<g style="fill:#FFFFFF; fill-opacity:1.0000; 
stroke:#FFFFFF; stroke-width:0.0212; stroke-opacity:1; 
stroke-linecap:round; stroke-linejoin:round;">
</g>
<g style="fill:#FFFFFF; fill-opacity:1.0000; 
stroke:#FFFFFF; stroke-width:0.0000; stroke-opacity:1; 
stroke-linecap:round; stroke-linejoin:round;">
<circle cx="152.4000" cy="73.6600" r="0.4000" /> 
</g>
<g style="fill:#FFFFFF; fill-opacity:1.0000; 
stroke:#FFFFFF; stroke-width:0.0212; stroke-opacity:1; 
stroke-linecap:round; stroke-linejoin:round;">
</g>
<g style="fill:#FFFFFF; fill-opacity:1.0000; 
stroke:#FFFFFF; stroke-width:0.0000; stroke-opacity:1; 
stroke-linecap:round; stroke-linejoin:round;">
<circle cx="127.0000" cy="74.9300" r="0.5000" /> 
</g>
<g style="fill:#FFFFFF; fill-opacity:1.0000; 
stroke:#FFFFFF; stroke-width:0.0212; stroke-opacity:1; 
stroke-linecap:round; stroke-linejoin:round;">
</g>
<g style="fill:#FFFFFF; fill-opacity:1.0000; 
stroke:#FFFFFF; stroke-width:0.0000; stroke-opacity:1; 
stroke-linecap:round; stroke-linejoin:round;">
<circle cx="127.0000" cy="72.3900" r="0.5000" /> 
</g>
<g style="fill:#FFFFFF; fill-opacity:1.0000; 
stroke:#FFFFFF; stroke-width:0.0212; stroke-opacity:1; 
stroke-linecap:round; stroke-linejoin:round;">
</g>
<g style="fill:#FFFFFF; fill-opacity:1.0000; 
stroke:#FFFFFF; stroke-width:0.0000; stroke-opacity:1; 
stroke-linecap:round; stroke-linejoin:round;">
<circle cx="148.5900" cy="68.5800" r="0.4000" /> 
</g>
<g style="fill:#FFFFFF; fill-opacity:1.0000; 
stroke:#FFFFFF; stroke-width:0.0212; stroke-opacity:1; 
stroke-linecap:round; stroke-linejoin:round;">
</g>
<g style="fill:#FFFFFF; fill-opacity:1.0000; 
stroke:#FFFFFF; stroke-width:0.0000; stroke-opacity:1; 
stroke-linecap:round; stroke-linejoin:round;">
<circle cx="156.2100" cy="68.5800" r="0.4000" /> 
</g>
<g style="fill:#FFFFFF; fill-opacity:1.0000; 
stroke:#FFFFFF; stroke-width:0.0212; stroke-opacity:1; 
stroke-linecap:round; stroke-linejoin:round;">
</g>
<g style="fill:#FFFFFF; fill-opacity:1.0000; 
stroke:#FFFFFF; stroke-width:0.0000; stroke-opacity:1; 
stroke-linecap:round; stroke-linejoin:round;">
<circle cx="127.0000" cy="100.3300" r="1.1000" /> 
</g>
<g style="fill:#FFFFFF; fill-opacity:1.0000; 
stroke:#FFFFFF; stroke-width:0.0212; stroke-opacity:1; 
stroke-linecap:round; stroke-linejoin:round;">
</g>
<g style="fill:#FFFFFF; fill-opacity:1.0000; 
stroke:#FFFFFF; stroke-width:0.0000; stroke-opacity:1; 
stroke-linecap:round; stroke-linejoin:round;">
<circle cx="127.0000" cy="67.3100" r="1.1000" /> 
</g>
<g style="fill:#FFFFFF; fill-opacity:1.0000; 
stroke:#FFFFFF; stroke-width:0.0212; stroke-opacity:1; 
stroke-linecap:round; stroke-linejoin:round;">
</g>
<g style="fill:#FFFFFF; fill-opacity:1.0000; 
stroke:#FFFFFF; stroke-width:0.0000; stroke-opacity:1; 
stroke-linecap:round; stroke-linejoin:round;">
<circle cx="139.7000" cy="72.2177" r="0.5000" /> 
</g>
<g style="fill:#FFFFFF; fill-opacity:1.0000; 
stroke:#FFFFFF; stroke-width:0.0212; stroke-opacity:1; 
stroke-linecap:round; stroke-linejoin:round;">
</g>
<g style="fill:#FFFFFF; fill-opacity:1.0000; 
stroke:#FFFFFF; stroke-width:0.0000; stroke-opacity:1; 
stroke-linecap:round; stroke-linejoin:round;">
<circle cx="139.7000" cy="67.2177" r="0.5000" /> 
</g>
<g style="fill:#FFFFFF; fill-opacity:1.0000; 
stroke:#FFFFFF; stroke-width:0.0212; stroke-opacity:1; 
stroke-linecap:round; stroke-linejoin:round;">
</g>
<g style="fill:#FFFFFF; fill-opacity:1.0000; 
stroke:#FFFFFF; stroke-width:0.0000; stroke-opacity:1; 
stroke-linecap:round; stroke-linejoin:round;">
<circle cx="144.7800" cy="86.3600" r="0.4000" /> 
</g>
<g style="fill:#FFFFFF; fill-opacity:1.0000; 
stroke:#FFFFFF; stroke-width:0.0212; stroke-opacity:1; 
stroke-linecap:round; stroke-linejoin:round;">
</g>
<g style="fill:#FFFFFF; fill-opacity:1.0000; 
stroke:#FFFFFF; stroke-width:0.0000; stroke-opacity:1; 
stroke-linecap:round; stroke-linejoin:round;">
<circle cx="139.7800" cy="86.3600" r="0.4000" /> 
</g>
<g style="fill:#FFFFFF; fill-opacity:1.0000; 
stroke:#FFFFFF; stroke-width:0.0212; stroke-opacity:1; 
stroke-linecap:round; stroke-linejoin:round;">
</g>
<g style="fill:#FFFFFF; fill-opacity:1.0000; 
stroke:#FFFFFF; stroke-width:0.0000; stroke-opacity:1; 
stroke-linecap:round; stroke-linejoin:round;">
<circle cx="160.0200" cy="88.9000" r="0.5000" /> 
</g>
<g style="fill:#FFFFFF; fill-opacity:1.0000; 
stroke:#FFFFFF; stroke-width:0.0212; stroke-opacity:1; 
stroke-linecap:round; stroke-linejoin:round;">
</g>
<g style="fill:#FFFFFF; fill-opacity:1.0000; 
stroke:#FFFFFF; stroke-width:0.0000; stroke-opacity:1; 
stroke-linecap:round; stroke-linejoin:round;">
<circle cx="160.0200" cy="91.4400" r="0.5000" /> 
</g>
<g style="fill:#FFFFFF; fill-opacity:1.0000; 
stroke:#FFFFFF; stroke-width:0.0212; stroke-opacity:1; 
stroke-linecap:round; stroke-linejoin:round;">
</g>
<g style="fill:#FFFFFF; fill-opacity:1.0000; 
stroke:#FFFFFF; stroke-width:0.0000; stroke-opacity:1; 
stroke-linecap:round; stroke-linejoin:round;">
<circle cx="160.0200" cy="93.9800" r="0.5000" /> 
</g>
<g style="fill:#FFFFFF; fill-opacity:1.0000; 
stroke:#FFFFFF; stroke-width:0.0212; stroke-opacity:1; 
stroke-linecap:round; stroke-linejoin:round;">
</g>
<g style="fill:#FFFFFF; fill-opacity:1.0000; 
stroke:#FFFFFF; stroke-width:0.0000; stroke-opacity:1; 
stroke-linecap:round; stroke-linejoin:round;">
<circle cx="161.2900" cy="67.3100" r="1.1000" /> 
</g>
<g style="fill:#FFFFFF; fill-opacity:1.0000; 
stroke:#FFFFFF; stroke-width:0.0212; stroke-opacity:1; 
stroke-linecap:round; stroke-linejoin:round;">
</g>
<g style="fill:#FFFFFF; fill-opacity:1.0000; 
stroke:#FFFFFF; stroke-width:0.0000; stroke-opacity:1; 
stroke-linecap:round; stroke-linejoin:round;">
<circle cx="127.0000" cy="109.2200" r="1.1000" /> 
</g>
<g style="fill:#FFFFFF; fill-opacity:1.0000; 
stroke:#FFFFFF; stroke-width:0.0212; stroke-opacity:1; 
stroke-linecap:round; stroke-linejoin:round;">
</g>
<g style="fill:#FFFFFF; fill-opacity:1.0000; 
stroke:#FFFFFF; stroke-width:0.0000; stroke-opacity:1; 
stroke-linecap:round; stroke-linejoin:round;">
<circle cx="154.9400" cy="97.7900" r="0.4000" /> 
</g>
<g style="fill:#FFFFFF; fill-opacity:1.0000; 
stroke:#FFFFFF; stroke-width:0.0212; stroke-opacity:1; 
stroke-linecap:round; stroke-linejoin:round;">
</g>
<g style="fill:#FFFFFF; fill-opacity:1.0000; 
stroke:#FFFFFF; stroke-width:0.0000; stroke-opacity:1; 
stroke-linecap:round; stroke-linejoin:round;">
<circle cx="154.9400" cy="105.4100" r="0.4000" /> 
</g>
<g style="fill:#FFFFFF; fill-opacity:1.0000; 
stroke:#FFFFFF; stroke-width:0.0212; stroke-opacity:1; 
stroke-linecap:round; stroke-linejoin:round;">
</g>
<g style="fill:#FFFFFF; fill-opacity:1.0000; 
stroke:#FFFFFF; stroke-width:0.0000; stroke-opacity:1; 
stroke-linecap:round; stroke-linejoin:round;">
<circle cx="156.2100" cy="83.8200" r="0.4000" /> 
</g>
<g style="fill:#FFFFFF; fill-opacity:1.0000; 
stroke:#FFFFFF; stroke-width:0.0212; stroke-opacity:1; 
stroke-linecap:round; stroke-linejoin:round;">
</g>
<g style="fill:#FFFFFF; fill-opacity:1.0000; 
stroke:#FFFFFF; stroke-width:0.0000; stroke-opacity:1; 
stroke-linecap:round; stroke-linejoin:round;">
<circle cx="148.5900" cy="83.8200" r="0.4000" /> 
</g>
<g style="fill:#FFFFFF; fill-opacity:1.0000; 
stroke:#FFFFFF; stroke-width:0.0212; stroke-opacity:1; 
stroke-linecap:round; stroke-linejoin:round;">
</g>
<g style="fill:#FFFFFF; fill-opacity:1.0000; 
stroke:#FFFFFF; stroke-width:0.0000; stroke-opacity:1; 
stroke-linecap:round; stroke-linejoin:round;">
<circle cx="127.0000" cy="83.8200" r="0.5000" /> 
</g>
<g style="fill:#FFFFFF; fill-opacity:1.0000; 
stroke:#FFFFFF; stroke-width:0.0212; stroke-opacity:1; 
stroke-linecap:round; stroke-linejoin:round;">
</g>
<g style="fill:#FFFFFF; fill-opacity:1.0000; 
stroke:#FFFFFF; stroke-width:0.0000; stroke-opacity:1; 
stroke-linecap:round; stroke-linejoin:round;">
<circle cx="127.0000" cy="81.2800" r="0.5000" /> 
</g>
<g style="fill:#FFFFFF; fill-opacity:1.0000; 
stroke:#FFFFFF; stroke-width:0.0212; stroke-opacity:1; 
stroke-linecap:round; stroke-linejoin:round;">
</g>
<g style="fill:#FFFFFF; fill-opacity:1.0000; 
stroke:#FFFFFF; stroke-width:0.0000; stroke-opacity:1; 
stroke-linecap:round; stroke-linejoin:round;">
<circle cx="152.4000" cy="88.9000" r="0.4000" /> 
</g>
<g style="fill:#FFFFFF; fill-opacity:1.0000; 
stroke:#FFFFFF; stroke-width:0.0212; stroke-opacity:1; 
stroke-linecap:round; stroke-linejoin:round;">
</g>
<g style="fill:#FFFFFF; fill-opacity:1.0000; 
stroke:#FFFFFF; stroke-width:0.0000; stroke-opacity:1; 
stroke-linecap:round; stroke-linejoin:round;">
<circle cx="149.8600" cy="91.4400" r="0.4000" /> 
</g>
<g style="fill:#FFFFFF; fill-opacity:1.0000; 
stroke:#FFFFFF; stroke-width:0.0212; stroke-opacity:1; 
stroke-linecap:round; stroke-linejoin:round;">
</g>
<g style="fill:#FFFFFF; fill-opacity:1.0000; 
stroke:#FFFFFF; stroke-width:0.0000; stroke-opacity:1; 
stroke-linecap:round; stroke-linejoin:round;">
<circle cx="152.4000" cy="93.9800" r="0.4000" /> 
</g>
<g style="fill:#FFFFFF; fill-opacity:1.0000; 
stroke:#FFFFFF; stroke-width:0.0212; stroke-opacity:1; 
stroke-linecap:round; stroke-linejoin:round;">
</g>
<g style="fill:#FFFFFF; fill-opacity:1.0000; 
stroke:#FFFFFF; stroke-width:0.0000; stroke-opacity:1; 
stroke-linecap:round; stroke-linejoin:round;">
<circle cx="127.0000" cy="93.9800" r="1.1000" /> 
</g>
<g style="fill:#FFFFFF; fill-opacity:1.0000; 
stroke:#FFFFFF; stroke-width:0.0212; stroke-opacity:1; 
stroke-linecap:round; stroke-linejoin:round;">
</g>
<g style="fill:#FFFFFF; fill-opacity:1.0000; 
stroke:#FFFFFF; stroke-width:0.0000; stroke-opacity:1; 
stroke-linecap:round; stroke-linejoin:round;">
<circle cx="135.8900" cy="93.9800" r="0.4000" /> 
</g>
<g style="fill:#FFFFFF; fill-opacity:1.0000; 
stroke:#FFFFFF; stroke-width:0.0212; stroke-opacity:1; 
stroke-linecap:round; stroke-linejoin:round;">
</g>
<g style="fill:#FFFFFF; fill-opacity:1.0000; 
stroke:#FFFFFF; stroke-width:0.0000; stroke-opacity:1; 
stroke-linecap:round; stroke-linejoin:round;">
<circle cx="143.5100" cy="93.9800" r="0.4000" /> 
</g>
<g style="fill:#FFFFFF; fill-opacity:1.0000; 
stroke:#FFFFFF; stroke-width:0.0212; stroke-opacity:1; 
stroke-linecap:round; stroke-linejoin:round;">
</g>
<g style="fill:#FFFFFF; fill-opacity:1.0000; 
stroke:#FFFFFF; stroke-width:0.0000; stroke-opacity:1; 
stroke-linecap:round; stroke-linejoin:round;">
<circle cx="144.7800" cy="104.1400" r="0.5000" /> 
</g>
<g style="fill:#FFFFFF; fill-opacity:1.0000; 
stroke:#FFFFFF; stroke-width:0.0212; stroke-opacity:1; 
stroke-linecap:round; stroke-linejoin:round;">
</g>
<g style="fill:#FFFFFF; fill-opacity:1.0000; 
stroke:#FFFFFF; stroke-width:0.0000; stroke-opacity:1; 
stroke-linecap:round; stroke-linejoin:round;">
<circle cx="144.7800" cy="106.6800" r="0.5000" /> 
</g>
<g style="fill:#FFFFFF; fill-opacity:1.0000; 
stroke:#FFFFFF; stroke-width:0.0212; stroke-opacity:1; 
stroke-linecap:round; stroke-linejoin:round;">
</g>
<g style="fill:#FFFFFF; fill-opacity:1.0000; 
stroke:#FFFFFF; stroke-width:0.0000; stroke-opacity:1; 
stroke-linecap:round; stroke-linejoin:round;">
<circle cx="161.2900" cy="109.2200" r="1.1000" /> 
</g>
<g style="fill:#FFFFFF; fill-opacity:1.0000; 
stroke:#FFFFFF; stroke-width:0.0212; stroke-opacity:1; 
stroke-linecap:round; stroke-linejoin:round;">
</g>
<g style="fill:#FFFFFF; fill-opacity:1.0000; 
stroke:#FFFFFF; stroke-width:0.0000; stroke-opacity:1; 
stroke-linecap:round; stroke-linejoin:round;">
<circle cx="151.1300" cy="105.4100" r="0.4000" /> 
</g>
<g style="fill:#FFFFFF; fill-opacity:1.0000; 
stroke:#FFFFFF; stroke-width:0.0212; stroke-opacity:1; 
stroke-linecap:round; stroke-linejoin:round;">
</g>
<g style="fill:#FFFFFF; fill-opacity:1.0000; 
stroke:#FFFFFF; stroke-width:0.0000; stroke-opacity:1; 
stroke-linecap:round; stroke-linejoin:round;">
<circle cx="151.1300" cy="97.7900" r="0.4000" /> 
</g>
<g style="fill:#FFFFFF; fill-opacity:1.0000; 
stroke:#FFFFFF; stroke-width:0.0212; stroke-opacity:1; 
stroke-linecap:round; stroke-linejoin:round;">
</g>
<g style="fill:#FFFFFF; fill-opacity:1.0000; 
stroke:#FFFFFF; stroke-width:0.0000; stroke-opacity:1; 
stroke-linecap:round; stroke-linejoin:round;">
<circle cx="144.7800" cy="99.0600" r="0.4000" /> 
</g>
<g style="fill:#FFFFFF; fill-opacity:1.0000; 
stroke:#FFFFFF; stroke-width:0.0212; stroke-opacity:1; 
stroke-linecap:round; stroke-linejoin:round;">
</g>
<g style="fill:#FFFFFF; fill-opacity:1.0000; 
stroke:#FFFFFF; stroke-width:0.0000; stroke-opacity:1; 
stroke-linecap:round; stroke-linejoin:round;">
<circle cx="139.7800" cy="99.0600" r="0.4000" /> 
</g>
<g style="fill:#FFFFFF; fill-opacity:1.0000; 
stroke:#FFFFFF; stroke-width:0.0212; stroke-opacity:1; 
stroke-linecap:round; stroke-linejoin:round;">
</g>
<g style="fill:#000000; fill-opacity:1.0000; 
stroke:#000000; stroke-width:0.0212; stroke-opacity:1; 
stroke-linecap:round; stroke-linejoin:round;">
</g> 
</svg>
