<?xml version="1.0" standalone="no"?>
 <!DOCTYPE svg PUBLIC "-//W3C//DTD SVG 1.1//EN" 
 "http://www.w3.org/Graphics/SVG/1.1/DTD/svg11.dtd"> 
<svg
  xmlns:svg="http://www.w3.org/2000/svg"
  xmlns="http://www.w3.org/2000/svg"
  xmlns:xlink="http://www.w3.org/1999/xlink"
  version="1.1"
  width="297.0022mm" height="210.0072mm" viewBox="0.0000 0.0000 297.0022 210.0072">
<title>SVG Image created as LX417_prova_zener-B_Cu.svg date 2023/05/01 19:07:04 </title>
  <desc>Image generated by PCBNEW </desc>
<g style="fill:#000000; fill-opacity:1.0000;stroke:#000000; stroke-opacity:1.0000;
stroke-linecap:round; stroke-linejoin:round;"
 transform="translate(0 0) scale(1 1)">
</g>
<g style="fill:#000000; fill-opacity:0.0; 
stroke:#000000; stroke-width:0.0000; stroke-opacity:1; 
stroke-linecap:round; stroke-linejoin:round;">
</g>
<g style="fill:#000000; fill-opacity:1.0000; 
stroke:#000000; stroke-width:0.0212; stroke-opacity:1; 
stroke-linecap:round; stroke-linejoin:round;">
<rect x="127.202199" y="51.765000" width="64.659285" height="65.565001" rx="0.000000" />
</g>
<g style="fill:#FFFFFF; fill-opacity:1.0000; 
stroke:#FFFFFF; stroke-width:0.0212; stroke-opacity:1; 
stroke-linecap:round; stroke-linejoin:round;">
<g >
</g>
<g style="fill:#FFFFFF; fill-opacity:1.0000; 
stroke:#FFFFFF; stroke-width:0.0000; stroke-opacity:1; 
stroke-linecap:round; stroke-linejoin:round;">
<circle cx="138.2522" cy="97.7900" r="0.9000" /> 
</g>
<g style="fill:#FFFFFF; fill-opacity:1.0000; 
stroke:#FFFFFF; stroke-width:0.0212; stroke-opacity:1; 
stroke-linecap:round; stroke-linejoin:round;">
</g>
<g style="fill:#FFFFFF; fill-opacity:1.0000; 
stroke:#FFFFFF; stroke-width:0.0000; stroke-opacity:1; 
stroke-linecap:round; stroke-linejoin:round;">
<circle cx="138.2522" cy="105.4100" r="0.9000" /> 
</g>
<g >
</g>
<g style="fill:#FFFFFF; fill-opacity:1.0000; 
stroke:#FFFFFF; stroke-width:0.0000; stroke-opacity:1; 
stroke-linecap:round; stroke-linejoin:round;">
<path style="fill:#FFFFFF; fill-opacity:1.0000; 
stroke:#FFFFFF; stroke-width:0.0000; stroke-opacity:1; 
stroke-linecap:round; stroke-linejoin:round;fill-rule:evenodd;"
d="M 156.4022,79.6400
158.2022,79.6400
158.2022,77.8400
156.4022,77.8400
Z" /> 
<circle cx="154.7622" cy="78.7400" r="0.9000" /> 
</g>
<g >
</g>
<g style="fill:#FFFFFF; fill-opacity:1.0000; 
stroke:#FFFFFF; stroke-width:0.0000; stroke-opacity:1; 
stroke-linecap:round; stroke-linejoin:round;">
<circle cx="144.6022" cy="78.7400" r="0.9000" /> 
<circle cx="142.0622" cy="76.2000" r="0.9000" /> 
<circle cx="144.6022" cy="73.6600" r="0.9000" /> 
</g>
<g >
</g>
<g style="fill:#FFFFFF; fill-opacity:1.0000; 
stroke:#FFFFFF; stroke-width:0.0000; stroke-opacity:1; 
stroke-linecap:round; stroke-linejoin:round;">
<path style="fill:#FFFFFF; fill-opacity:1.0000; 
stroke:#FFFFFF; stroke-width:0.0000; stroke-opacity:1; 
stroke-linecap:round; stroke-linejoin:round;fill-rule:evenodd;"
d="M 169.1022,74.0300
169.1022,75.8300
170.9022,75.8300
170.9022,74.0300
Z" /> 
<circle cx="170.0022" cy="72.3900" r="0.9000" /> 
</g>
<g >
</g>
<g style="fill:#FFFFFF; fill-opacity:1.0000; 
stroke:#FFFFFF; stroke-width:0.0000; stroke-opacity:1; 
stroke-linecap:round; stroke-linejoin:round;">
<circle cx="148.4122" cy="68.5800" r="0.9000" /> 
</g>
<g style="fill:#FFFFFF; fill-opacity:1.0000; 
stroke:#FFFFFF; stroke-width:0.0212; stroke-opacity:1; 
stroke-linecap:round; stroke-linejoin:round;">
</g>
<g style="fill:#FFFFFF; fill-opacity:1.0000; 
stroke:#FFFFFF; stroke-width:0.0000; stroke-opacity:1; 
stroke-linecap:round; stroke-linejoin:round;">
<circle cx="140.7922" cy="68.5800" r="0.9000" /> 
</g>
<g >
</g>
<g style="fill:#FFFFFF; fill-opacity:1.0000; 
stroke:#FFFFFF; stroke-width:0.0000; stroke-opacity:1; 
stroke-linecap:round; stroke-linejoin:round;">
<circle cx="170.0022" cy="100.3300" r="1.9000" /> 
</g>
<g style="fill:#FFFFFF; fill-opacity:1.0000; 
stroke:#FFFFFF; stroke-width:0.0212; stroke-opacity:1; 
stroke-linecap:round; stroke-linejoin:round;">
</g>
<g >
</g>
<g >
</g>
<g style="fill:#FFFFFF; fill-opacity:1.0000; 
stroke:#FFFFFF; stroke-width:0.0212; stroke-opacity:1; 
stroke-linecap:round; stroke-linejoin:round;">
</g>
<g style="fill:#FFFFFF; fill-opacity:1.0000; 
stroke:#FFFFFF; stroke-width:0.0000; stroke-opacity:1; 
stroke-linecap:round; stroke-linejoin:round;">
<path style="fill:#FFFFFF; fill-opacity:1.0000; 
stroke:#FFFFFF; stroke-width:0.0000; stroke-opacity:1; 
stroke-linecap:round; stroke-linejoin:round;fill-rule:evenodd;"
d="M 156.3022,73.2177
158.3022,73.2177
158.3022,71.2177
156.3022,71.2177
Z" /> 
<circle cx="157.3022" cy="67.2177" r="1.0000" /> 
</g>
<g style="fill:#FFFFFF; fill-opacity:1.0000; 
stroke:#FFFFFF; stroke-width:0.0212; stroke-opacity:1; 
stroke-linecap:round; stroke-linejoin:round;">
</g>
<g >
</g>
<g style="fill:#FFFFFF; fill-opacity:1.0000; 
stroke:#FFFFFF; stroke-width:0.0212; stroke-opacity:1; 
stroke-linecap:round; stroke-linejoin:round;">
</g>
<g style="fill:#FFFFFF; fill-opacity:1.0000; 
stroke:#FFFFFF; stroke-width:0.0000; stroke-opacity:1; 
stroke-linecap:round; stroke-linejoin:round;">
<circle cx="152.2222" cy="86.3600" r="0.9000" /> 
</g>
<g style="fill:#FFFFFF; fill-opacity:1.0000; 
stroke:#FFFFFF; stroke-width:0.0212; stroke-opacity:1; 
stroke-linecap:round; stroke-linejoin:round;">
</g>
<g style="fill:#FFFFFF; fill-opacity:1.0000; 
stroke:#FFFFFF; stroke-width:0.0000; stroke-opacity:1; 
stroke-linecap:round; stroke-linejoin:round;">
<circle cx="157.2222" cy="86.3600" r="0.9000" /> 
</g>
<g style="fill:#FFFFFF; fill-opacity:1.0000; 
stroke:#FFFFFF; stroke-width:0.0212; stroke-opacity:1; 
stroke-linecap:round; stroke-linejoin:round;">
</g>
<g >
</g>
<g style="fill:#FFFFFF; fill-opacity:1.0000; 
stroke:#FFFFFF; stroke-width:0.0212; stroke-opacity:1; 
stroke-linecap:round; stroke-linejoin:round;">
</g>
<g style="fill:#FFFFFF; fill-opacity:1.0000; 
stroke:#FFFFFF; stroke-width:0.0000; stroke-opacity:1; 
stroke-linecap:round; stroke-linejoin:round;">
<path style="fill:#FFFFFF; fill-opacity:1.0000; 
stroke:#FFFFFF; stroke-width:0.0000; stroke-opacity:1; 
stroke-linecap:round; stroke-linejoin:round;fill-rule:evenodd;"
d="M 137.8822,89.8000
137.8822,88.0000
136.0822,88.0000
136.0822,89.8000
Z" /> 
<circle cx="136.9822" cy="91.4400" r="0.9000" /> 
<circle cx="136.9822" cy="93.9800" r="0.9000" /> 
</g>
<g >
</g>
<g >
</g>
<g >
</g>
<g style="fill:#FFFFFF; fill-opacity:1.0000; 
stroke:#FFFFFF; stroke-width:0.0000; stroke-opacity:1; 
stroke-linecap:round; stroke-linejoin:round;">
<circle cx="142.0622" cy="97.7900" r="0.9000" /> 
</g>
<g style="fill:#FFFFFF; fill-opacity:1.0000; 
stroke:#FFFFFF; stroke-width:0.0212; stroke-opacity:1; 
stroke-linecap:round; stroke-linejoin:round;">
</g>
<g style="fill:#FFFFFF; fill-opacity:1.0000; 
stroke:#FFFFFF; stroke-width:0.0000; stroke-opacity:1; 
stroke-linecap:round; stroke-linejoin:round;">
<circle cx="142.0622" cy="105.4100" r="0.9000" /> 
</g>
<g >
</g>
<g style="fill:#FFFFFF; fill-opacity:1.0000; 
stroke:#FFFFFF; stroke-width:0.0000; stroke-opacity:1; 
stroke-linecap:round; stroke-linejoin:round;">
<circle cx="140.7922" cy="83.8200" r="0.9000" /> 
</g>
<g style="fill:#FFFFFF; fill-opacity:1.0000; 
stroke:#FFFFFF; stroke-width:0.0212; stroke-opacity:1; 
stroke-linecap:round; stroke-linejoin:round;">
</g>
<g style="fill:#FFFFFF; fill-opacity:1.0000; 
stroke:#FFFFFF; stroke-width:0.0000; stroke-opacity:1; 
stroke-linecap:round; stroke-linejoin:round;">
<circle cx="148.4122" cy="83.8200" r="0.9000" /> 
</g>
<g >
</g>
<g style="fill:#FFFFFF; fill-opacity:1.0000; 
stroke:#FFFFFF; stroke-width:0.0000; stroke-opacity:1; 
stroke-linecap:round; stroke-linejoin:round;">
<path style="fill:#FFFFFF; fill-opacity:1.0000; 
stroke:#FFFFFF; stroke-width:0.0000; stroke-opacity:1; 
stroke-linecap:round; stroke-linejoin:round;fill-rule:evenodd;"
d="M 169.1022,82.9200
169.1022,84.7200
170.9022,84.7200
170.9022,82.9200
Z" /> 
<circle cx="170.0022" cy="81.2800" r="0.9000" /> 
</g>
<g >
</g>
<g style="fill:#FFFFFF; fill-opacity:1.0000; 
stroke:#FFFFFF; stroke-width:0.0000; stroke-opacity:1; 
stroke-linecap:round; stroke-linejoin:round;">
<circle cx="144.6022" cy="88.9000" r="0.9000" /> 
<circle cx="147.1422" cy="91.4400" r="0.9000" /> 
<circle cx="144.6022" cy="93.9800" r="0.9000" /> 
</g>
<g >
</g>
<g style="fill:#FFFFFF; fill-opacity:1.0000; 
stroke:#FFFFFF; stroke-width:0.0000; stroke-opacity:1; 
stroke-linecap:round; stroke-linejoin:round;">
<circle cx="170.0022" cy="93.9800" r="1.9000" /> 
</g>
<g style="fill:#FFFFFF; fill-opacity:1.0000; 
stroke:#FFFFFF; stroke-width:0.0212; stroke-opacity:1; 
stroke-linecap:round; stroke-linejoin:round;">
</g>
<g >
</g>
<g style="fill:#FFFFFF; fill-opacity:1.0000; 
stroke:#FFFFFF; stroke-width:0.0212; stroke-opacity:1; 
stroke-linecap:round; stroke-linejoin:round;">
</g>
<g style="fill:#FFFFFF; fill-opacity:1.0000; 
stroke:#FFFFFF; stroke-width:0.0000; stroke-opacity:1; 
stroke-linecap:round; stroke-linejoin:round;">
<circle cx="161.1122" cy="93.9800" r="0.9000" /> 
</g>
<g style="fill:#FFFFFF; fill-opacity:1.0000; 
stroke:#FFFFFF; stroke-width:0.0212; stroke-opacity:1; 
stroke-linecap:round; stroke-linejoin:round;">
</g>
<g style="fill:#FFFFFF; fill-opacity:1.0000; 
stroke:#FFFFFF; stroke-width:0.0000; stroke-opacity:1; 
stroke-linecap:round; stroke-linejoin:round;">
<circle cx="153.4922" cy="93.9800" r="0.9000" /> 
</g>
<g >
</g>
<g style="fill:#FFFFFF; fill-opacity:1.0000; 
stroke:#FFFFFF; stroke-width:0.0000; stroke-opacity:1; 
stroke-linecap:round; stroke-linejoin:round;">
<path style="fill:#FFFFFF; fill-opacity:1.0000; 
stroke:#FFFFFF; stroke-width:0.0000; stroke-opacity:1; 
stroke-linecap:round; stroke-linejoin:round;fill-rule:evenodd;"
d="M 153.1222,105.0400
153.1222,103.2400
151.3222,103.2400
151.3222,105.0400
Z" /> 
<circle cx="152.2222" cy="106.6800" r="0.9000" /> 
</g>
<g >
</g>
<g >
</g>
<g style="fill:#FFFFFF; fill-opacity:1.0000; 
stroke:#FFFFFF; stroke-width:0.0000; stroke-opacity:1; 
stroke-linecap:round; stroke-linejoin:round;">
<circle cx="145.8722" cy="105.4100" r="0.9000" /> 
</g>
<g style="fill:#FFFFFF; fill-opacity:1.0000; 
stroke:#FFFFFF; stroke-width:0.0212; stroke-opacity:1; 
stroke-linecap:round; stroke-linejoin:round;">
</g>
<g style="fill:#FFFFFF; fill-opacity:1.0000; 
stroke:#FFFFFF; stroke-width:0.0000; stroke-opacity:1; 
stroke-linecap:round; stroke-linejoin:round;">
<circle cx="145.8722" cy="97.7900" r="0.9000" /> 
</g>
<g >
</g>
<g style="fill:#FFFFFF; fill-opacity:1.0000; 
stroke:#FFFFFF; stroke-width:0.0000; stroke-opacity:1; 
stroke-linecap:round; stroke-linejoin:round;">
<circle cx="152.2222" cy="99.0600" r="0.9000" /> 
</g>
<g style="fill:#FFFFFF; fill-opacity:1.0000; 
stroke:#FFFFFF; stroke-width:0.0212; stroke-opacity:1; 
stroke-linecap:round; stroke-linejoin:round;">
</g>
<g style="fill:#FFFFFF; fill-opacity:1.0000; 
stroke:#FFFFFF; stroke-width:0.0000; stroke-opacity:1; 
stroke-linecap:round; stroke-linejoin:round;">
<circle cx="157.2222" cy="99.0600" r="0.9000" /> 
</g>
<g style="fill:#FFFFFF; fill-opacity:1.0000; 
stroke:#FFFFFF; stroke-width:0.0212; stroke-opacity:1; 
stroke-linecap:round; stroke-linejoin:round;">
</g>
<g >
</g>
<g >
</g>
<g style="fill:#FFFFFF; fill-opacity:1.0000; 
stroke:#FFFFFF; stroke-width:0.0212; stroke-opacity:1; 
stroke-linecap:round; stroke-linejoin:round;">
</g>
<g style="fill:#FFFFFF; fill-opacity:1.0000; 
stroke:#FFFFFF; stroke-width:0.7620; stroke-opacity:1; 
stroke-linecap:round; stroke-linejoin:round;">
</g>
<g style="fill:#FFFFFF; fill-opacity:0.0; 
stroke:#FFFFFF; stroke-width:0.7620; stroke-opacity:1; 
stroke-linecap:round; stroke-linejoin:round;">
<path d="M160.0145 74.9300
L157.3022 72.2177
" />
<path d="M157.3022 78.7400
L160.0145 76.0277
" />
<path d="M160.0145 76.0277
L160.0145 74.9300
" />
<path d="M170.0022 74.9300
L160.0145 74.9300
" />
<path d="M152.2222 81.2800
L144.6022 73.6600
" />
<path d="M144.6022 73.6600
L144.6022 72.3900
" />
<path d="M152.2222 88.9000
L152.2222 81.2800
" />
<path d="M144.6022 72.3900
L140.7922 68.5800
" />
<path d="M147.1422 91.4400
L149.6822 91.4400
" />
<path d="M149.6822 91.4400
L152.2222 88.9000
" />
<path d="M161.1122 93.9800
L158.4094 93.9800
" />
<path d="M155.2116 102.9721
L153.9937 104.1900
" />
<path d="M158.4094 93.9800
L155.2116 97.1778
" />
<path d="M135.0470 99.7945
L134.9194 99.6669
" />
<path d="M145.8722 100.3102
L149.7020 104.1400
" />
<path d="M135.6209 86.6569
L142.3173 86.6569
" />
<path d="M161.1122 93.9800
L170.0022 93.9800
" />
<path d="M135.8559 103.0137
L134.9194 103.0137
" />
<path d="M152.2222 104.1400
L149.7020 104.1400
" />
<path d="M145.3565 99.7945
L135.0470 99.7945
" />
<path d="M134.9194 99.6669
L134.9194 99.0600
" />
<path d="M145.8722 97.7900
L145.8722 100.3102
" />
<path d="M144.6022 84.3720
L144.6022 78.7400
" />
<path d="M145.8722 100.3102
L145.3565 99.7945
" />
<path d="M138.2522 105.4100
L135.8559 103.0137
" />
<path d="M134.9194 103.0137
L134.9194 99.0600
" />
<path d="M153.9937 104.1900
L153.9437 104.1400
" />
<path d="M153.9437 104.1400
L152.2222 104.1400
" />
<path d="M134.9194 99.0600
L134.9194 87.3584
" />
<path d="M134.9194 87.3584
L135.6209 86.6569
" />
<path d="M142.3173 86.6569
L144.6022 84.3720
" />
<path d="M155.2116 97.1778
L155.2116 102.9721
" />
<path d="M142.0622 82.5500
L140.7922 83.8200
" />
<path d="M142.0622 76.2000
L142.0622 82.5500
" />
<path d="M148.4122 83.8200
L148.4122 85.0900
" />
<path d="M142.0622 91.4400
L136.9822 91.4400
" />
<path d="M148.4122 85.0900
L144.6022 88.9000
" />
<path d="M142.0622 91.4400
L142.0622 97.7900
" />
<path d="M144.6022 88.9000
L142.0622 91.4400
" />
<path d="M149.0246 93.9800
L144.6022 93.9800
" />
<path d="M150.7074 93.9816
L149.0263 93.9816
" />
<path d="M149.0263 93.9816
L149.0246 93.9800
" />
<path d="M154.7622 78.7400
L154.7622 89.9006
" />
<path d="M153.0952 91.5938
L150.7074 93.9816
" />
<path d="M148.4122 72.3900
L148.4122 68.5800
" />
<path d="M154.7622 78.7400
L148.4122 72.3900
" />
<path d="M154.7622 89.9006
L153.0952 91.5675
" />
<path d="M153.0952 91.5675
L153.0952 91.5938
" />
<path d="M145.8722 106.6800
L144.6022 105.4100
" />
<path d="M144.6022 105.4100
L142.0622 105.4100
" />
<path d="M152.2222 106.6800
L145.8722 106.6800
" />
<path d="M136.9822 93.9800
L136.9822 96.5200
" />
<path d="M136.9822 96.5200
L138.2522 97.7900
" />
<path d="M152.2222 99.0600
L152.2222 95.2500
" />
<path d="M170.0022 83.8200
L167.4622 83.8200
" />
<path d="M159.6491 91.6331
L155.8391 91.6331
" />
<path d="M167.4622 83.8200
L159.6491 91.6331
" />
<path d="M155.8391 91.6331
L153.4922 93.9800
" />
<path d="M152.2222 95.2500
L153.4922 93.9800
" />
</g>
<g >
</g>
<g style="fill:#FFFFFF; fill-opacity:0.0; 
stroke:#FFFFFF; stroke-width:0.7620; stroke-opacity:1; 
stroke-linecap:round; stroke-linejoin:round;">
<g >
</g>
<g style="fill:#FFFFFF; fill-opacity:1.0000; 
stroke:#FFFFFF; stroke-width:0.0000; stroke-opacity:1; 
stroke-linecap:round; stroke-linejoin:round;">
<path style="fill:#FFFFFF; fill-opacity:1.0000; 
stroke:#FFFFFF; stroke-width:0.0000; stroke-opacity:1; 
stroke-linecap:round; stroke-linejoin:round;fill-rule:evenodd;"
d="M 133.2292,64.7897
133.1834,64.8425
133.1722,64.8940
133.1722,111.6360
133.1919,111.7030
133.2447,111.7488
133.2962,111.7600
172.4182,111.7600
172.4852,111.7403
172.5310,111.6875
172.5422,111.6360
172.5422,109.2200
171.3579,109.2200
171.3373,109.4554
171.2761,109.6837
171.2761,109.6837
171.1762,109.8978
171.0407,110.0914
170.8736,110.2585
170.6800,110.3940
170.4659,110.4939
170.2376,110.5551
170.0612,110.5705
170.0585,110.5705
169.9459,110.5705
169.9432,110.5705
169.7668,110.5551
169.5385,110.4939
169.3244,110.3940
169.1308,110.2585
168.9637,110.0914
168.8282,109.8978
168.7283,109.6837
168.6671,109.4554
168.6465,109.2200
168.6465,109.2200
137.0679,109.2200
137.0473,109.4554
136.9861,109.6837
136.9861,109.6837
136.8862,109.8978
136.7507,110.0914
136.5836,110.2585
136.3900,110.3940
136.1759,110.4939
135.9476,110.5551
135.7712,110.5705
135.7685,110.5705
135.6559,110.5705
135.6532,110.5705
135.4768,110.5551
135.2485,110.4939
135.0344,110.3940
134.8408,110.2585
134.6737,110.0914
134.5382,109.8978
134.4383,109.6837
134.3771,109.4554
134.3565,109.2200
134.3771,108.9846
134.4383,108.7563
134.5382,108.5422
134.6737,108.3486
134.8408,108.1815
135.0344,108.0460
135.2485,107.9461
135.4768,107.8849
135.6505,107.8697
135.6505,107.8697
135.6532,107.8695
135.7712,107.8695
135.7739,107.8697
135.7739,107.8697
135.9476,107.8849
136.1759,107.9461
136.3900,108.0460
136.5836,108.1815
136.7507,108.3486
136.8862,108.5422
136.9861,108.7563
137.0473,108.9846
137.0679,109.2200
168.6465,109.2200
168.6671,108.9846
168.7283,108.7563
168.8282,108.5422
168.9637,108.3486
169.1308,108.1815
169.3244,108.0460
169.5385,107.9461
169.7668,107.8849
169.9405,107.8697
169.9405,107.8697
169.9432,107.8695
170.0612,107.8695
170.0639,107.8697
170.0639,107.8697
170.2376,107.8849
170.4659,107.9461
170.6800,108.0460
170.8736,108.1815
171.0407,108.3486
171.1762,108.5422
171.2761,108.7563
171.3373,108.9846
171.3579,109.2200
172.5422,109.2200
172.5422,101.0622
172.5225,100.9951
172.4697,100.9494
172.4006,100.9394
172.3370,100.9684
172.3003,101.0238
172.2393,101.2115
172.2364,101.2188
172.1111,101.4850
172.1074,101.4918
171.9498,101.7402
171.9452,101.7465
171.8669,101.8411
170.9380,100.9122
170.8373,101.0536
170.6853,101.1986
170.5830,101.2643
171.5156,102.1970
171.2939,102.3581
171.2873,102.3623
171.0295,102.5040
171.0225,102.5073
170.7489,102.6156
170.7415,102.6180
170.4566,102.6912
170.4489,102.6926
170.1571,102.7295
170.1493,102.7300
169.8551,102.7300
169.8473,102.7295
169.5555,102.6926
169.5478,102.6912
169.2629,102.6180
169.2555,102.6156
168.9819,102.5073
168.9749,102.5040
168.7171,102.3623
168.7105,102.3581
168.4888,102.1970
168.4888,102.1970
169.4189,101.2669
169.4048,101.2596
169.2397,101.1297
169.1021,100.9710
169.0675,100.9111
168.1375,101.8411
168.0592,101.7465
168.0546,101.7402
167.8970,101.4918
167.8933,101.4850
167.7680,101.2188
167.7651,101.2115
167.6742,100.9317
167.6723,100.9242
167.6171,100.6352
167.6162,100.6275
167.5977,100.3339
167.5977,100.3261
167.6162,100.0325
167.6171,100.0248
167.6723,99.7358
167.6742,99.7283
167.7651,99.4485
167.7680,99.4412
167.8933,99.1750
167.8970,99.1682
168.0546,98.9198
168.0592,98.9135
168.1375,98.8189
169.0664,99.7478
169.1671,99.6064
169.3191,99.4614
169.4214,99.3957
168.4888,98.4630
168.7105,98.3019
168.7171,98.2977
168.9749,98.1560
168.9819,98.1527
169.2555,98.0444
169.2629,98.0420
169.5478,97.9688
169.5555,97.9674
169.8473,97.9305
169.8551,97.9300
170.1493,97.9300
170.1571,97.9305
170.4489,97.9674
170.4566,97.9688
170.7415,98.0420
170.7489,98.0444
171.0225,98.1527
171.0295,98.1560
171.2873,98.2977
171.2939,98.3019
171.5156,98.4630
171.5156,98.4630
170.5855,99.3931
170.5996,99.4004
170.7647,99.5303
170.9023,99.6890
170.9369,99.7489
171.8669,98.8189
171.9452,98.9135
171.9498,98.9198
172.1074,99.1682
172.1111,99.1750
172.2364,99.4412
172.2393,99.4485
172.3003,99.6362
172.3397,99.6938
172.4041,99.7210
172.4729,99.7091
172.5244,99.6619
172.5422,99.5978
172.5422,94.7138
172.5225,94.6467
172.4697,94.6010
172.4006,94.5910
172.3370,94.6201
172.3003,94.6754
172.2908,94.7046
172.2401,94.8605
172.2385,94.8654
172.2369,94.8689
172.1429,95.0686
172.1099,95.1387
172.1079,95.1420
172.1078,95.1420
171.9502,95.3905
171.9502,95.3905
171.9481,95.3938
171.9456,95.3968
171.9456,95.3968
171.8359,95.5293
171.7555,95.6265
171.5354,95.8333
171.2910,96.0108
171.0263,96.1563
170.7455,96.2675
170.4529,96.3426
170.1532,96.3805
170.1493,96.3805
169.8551,96.3805
169.8512,96.3805
169.5515,96.3426
169.2589,96.2675
168.9781,96.1563
168.7134,96.0108
168.4690,95.8333
168.2489,95.6265
168.0563,95.3938
167.8945,95.1387
167.7975,94.9327
167.7512,94.8804
167.6853,94.8615
162.2587,94.8615
162.1916,94.8812
162.1675,94.9015
162.0640,95.0139
161.8808,95.1565
161.6767,95.2669
161.5669,95.3046
161.4572,95.3423
161.4572,95.3423
161.4572,95.3423
161.2282,95.3805
161.2282,95.3805
160.9962,95.3805
160.9962,95.3805
160.7672,95.3423
160.5477,95.2669
160.3436,95.1565
160.1604,95.0139
160.0569,94.9015
159.9971,94.8655
159.9657,94.8615
158.8259,94.8615
158.7589,94.8812
158.7382,94.8978
156.1295,97.5066
156.0960,97.5679
156.0931,97.5942
156.0931,98.2331
156.1128,98.3002
156.1295,98.3208
156.8242,99.0156
156.8370,98.9349
156.8946,98.8220
156.9842,98.7324
157.0971,98.6748
157.1778,98.6620
156.4234,97.9076
156.4234,97.9076
156.4539,97.8839
156.6579,97.7735
156.8773,97.6982
157.1062,97.6600
157.3382,97.6600
157.5671,97.6982
157.7865,97.7735
157.9906,97.8840
158.0210,97.9076
158.0210,97.9076
157.2666,98.6620
157.3473,98.6748
157.4602,98.7324
157.5498,98.8220
157.6074,98.9349
157.6202,99.0156
158.3734,98.2624
158.4577,98.3914
158.5509,98.6039
158.6078,98.8288
158.6270,99.0600
158.6078,99.2912
158.5509,99.5161
158.4577,99.7286
158.3734,99.8576
157.6202,99.1044
157.6074,99.1851
157.5498,99.2980
157.4602,99.3876
157.3473,99.4452
157.2666,99.4580
158.0210,100.2124
157.9905,100.2361
157.7865,100.3465
157.5671,100.4218
157.3382,100.4600
157.1062,100.4600
156.8773,100.4218
156.6579,100.3465
156.4538,100.2360
156.4234,100.2124
157.1778,99.4580
157.0971,99.4452
156.9842,99.3876
156.8946,99.2980
156.8370,99.1851
156.8242,99.1044
156.1295,99.7992
156.0960,99.8605
156.0931,99.8869
156.0931,102.9312
156.0936,102.9413
156.0980,102.9961
156.0869,103.0776
156.0865,103.0810
156.0849,103.0955
156.0796,103.1448
156.0776,103.1627
156.0775,103.1630
156.0722,103.1858
156.0721,103.1861
156.0438,103.2634
156.0426,103.2665
156.0164,103.3444
156.0162,103.3447
156.0061,103.3658
156.0060,103.3661
155.9617,103.4354
155.9600,103.4382
155.9175,103.5087
155.9173,103.5089
155.9029,103.5274
155.9027,103.5276
155.8446,103.5858
155.8423,103.5882
155.7857,103.6479
155.7854,103.6481
155.7674,103.6630
154.6749,104.7554
154.6619,104.7708
154.6537,104.7822
154.6026,104.8280
154.5978,104.8326
154.5832,104.8471
154.5672,104.8600
154.5621,104.8644
154.5110,104.9102
154.4988,104.9171
154.4822,104.9284
154.4713,104.9371
154.4713,104.9371
154.4713,104.9371
154.4098,104.9676
154.4039,104.9708
154.3441,105.0046
154.3307,105.0087
154.3120,105.0161
154.2995,105.0223
154.2329,105.0389
154.2264,105.0407
154.1608,105.0608
154.1469,105.0620
154.1270,105.0652
154.1134,105.0686
154.0448,105.0705
154.0381,105.0708
153.9697,105.0764
153.9558,105.0745
153.9357,105.0734
153.9218,105.0738
153.8543,105.0609
153.8478,105.0598
153.7797,105.0505
153.7797,105.0505
153.7664,105.0487
153.7662,105.0502
153.7119,105.0466
153.6507,105.0803
153.6223,105.1331
153.6217,105.1329
153.6203,105.1367
153.6175,105.1418
153.6169,105.1458
153.6163,105.1475
153.5660,105.2823
153.4797,105.3975
153.3645,105.4838
153.2843,105.5137
153.2284,105.5556
153.2039,105.6211
153.2188,105.6893
153.2364,105.7139
153.3312,105.8168
153.4581,106.0112
153.5514,106.2237
153.6083,106.4487
153.6275,106.6800
153.6083,106.9113
153.6083,106.9113
153.6083,106.9113
153.5514,107.1363
153.4581,107.3488
153.3312,107.5432
153.1740,107.7139
152.9908,107.8565
152.7867,107.9669
152.6769,108.0046
152.5672,108.0423
152.5672,108.0423
152.5672,108.0423
152.3382,108.0805
152.3382,108.0805
152.1062,108.0805
152.1062,108.0805
151.8772,108.0423
151.6577,107.9669
151.4536,107.8565
151.2704,107.7139
151.1669,107.6015
151.1071,107.5655
151.0757,107.5615
145.9131,107.5615
145.9030,107.5619
145.8997,107.5622
145.8482,107.5664
145.7666,107.5553
145.7634,107.5549
145.6816,107.5460
145.6813,107.5459
145.6585,107.5405
145.6582,107.5405
145.5809,107.5121
145.5779,107.5110
145.4999,107.4847
145.4997,107.4846
145.4785,107.4745
145.4782,107.4744
145.4089,107.4300
145.4061,107.4283
145.3356,107.3859
145.3354,107.3857
145.3169,107.3712
145.3167,107.3711
145.2585,107.3129
145.2561,107.3106
145.1964,107.2540
145.1962,107.2538
145.1813,107.2357
144.2734,106.3278
144.2121,106.2943
144.1857,106.2915
143.2087,106.2915
143.1416,106.3112
143.1175,106.3315
143.0140,106.4439
142.8308,106.5865
142.6267,106.6969
142.5169,106.7346
142.4072,106.7723
142.4072,106.7723
142.4072,106.7723
142.1782,106.8105
142.1782,106.8105
141.9462,106.8105
141.9462,106.8105
141.7172,106.7723
141.4977,106.6969
141.2936,106.5865
141.1104,106.4439
140.9532,106.2732
140.8263,106.0788
140.7330,105.8663
140.6761,105.6413
140.6569,105.4100
140.6761,105.1787
140.7330,104.9537
140.8263,104.7412
140.9532,104.5468
141.1104,104.3761
141.2936,104.2335
141.4977,104.1231
141.4977,104.1231
141.4977,104.1231
141.7172,104.0477
141.9137,104.0149
141.9462,104.0095
142.1782,104.0095
142.2107,104.0149
142.4072,104.0477
142.6267,104.1231
142.8308,104.2335
143.0140,104.3761
143.1175,104.4885
143.1773,104.5245
143.2087,104.5285
144.5613,104.5285
144.5714,104.5281
144.5812,104.5273
144.6262,104.5236
144.6262,104.5236
144.6262,104.5236
144.7028,104.5341
144.7719,104.5236
144.8108,104.4952
144.9204,104.3761
145.1036,104.2335
145.1036,104.2335
145.3077,104.1231
145.3077,104.1231
145.3077,104.1231
145.5272,104.0477
145.7237,104.0149
145.7562,104.0095
145.9882,104.0095
146.0207,104.0149
146.2172,104.0477
146.4367,104.1231
146.6408,104.2335
146.8240,104.3761
146.9812,104.5468
147.1081,104.7411
147.2014,104.9537
147.2014,104.9537
147.2014,104.9537
147.2353,105.0879
147.2583,105.1787
147.2775,105.4100
147.2583,105.6413
147.2576,105.6441
147.2578,105.6480
147.2575,105.6515
147.2579,105.6516
147.2603,105.7139
147.3002,105.7712
147.3648,105.7978
147.3778,105.7985
151.0757,105.7985
151.1428,105.7788
151.1669,105.7585
151.2080,105.7139
151.2389,105.6512
151.2311,105.5818
151.1869,105.5277
151.1601,105.5137
151.0799,105.4838
150.9647,105.3975
150.8784,105.2823
150.8281,105.1475
150.8265,105.1322
150.7997,105.0677
150.7423,105.0278
150.7032,105.0215
149.7429,105.0215
149.7328,105.0219
149.7296,105.0222
149.6780,105.0264
149.5964,105.0153
149.5932,105.0149
149.5114,105.0060
149.5111,105.0059
149.4883,105.0005
149.4880,105.0005
149.4108,104.9721
149.4077,104.9710
149.3297,104.9447
149.3295,104.9446
149.3083,104.9345
149.3080,104.9344
149.2387,104.8900
149.2359,104.8883
149.1654,104.8459
149.1652,104.8457
149.1467,104.8312
149.1465,104.8311
149.0883,104.7729
149.0860,104.7706
149.0262,104.7140
149.0260,104.7138
149.0111,104.6957
145.2778,100.9624
145.2704,100.9556
145.2285,100.9200
145.2117,100.8979
145.2007,100.8853
145.0277,100.7123
144.9664,100.6788
144.9400,100.6760
135.9249,100.6760
135.8579,100.6957
135.8121,100.7485
135.8009,100.8000
135.8009,102.0083
135.8206,102.0753
135.8734,102.1211
135.9082,102.1312
135.9614,102.1384
135.9647,102.1388
136.0249,102.1454
136.0465,102.1477
136.0465,102.1477
136.0465,102.1477
136.0468,102.1478
136.0696,102.1531
136.0697,102.1532
136.0699,102.1532
136.1471,102.1816
136.1503,102.1827
136.2282,102.2089
136.2284,102.2091
136.2496,102.2192
136.2498,102.2193
136.3191,102.2636
136.3220,102.2654
136.3925,102.3078
136.3927,102.3080
136.4112,102.3224
136.4114,102.3226
136.4696,102.3807
136.4720,102.3831
136.5317,102.4396
136.5318,102.4399
136.5468,102.4580
138.0620,103.9732
138.1233,104.0067
138.1497,104.0095
138.3682,104.0095
138.4007,104.0149
138.5972,104.0477
138.8167,104.1231
139.0208,104.2335
139.2040,104.3761
139.3612,104.5468
139.4881,104.7411
139.5814,104.9537
139.5814,104.9537
139.5814,104.9537
139.6153,105.0879
139.6383,105.1787
139.6575,105.4100
139.6383,105.6413
139.6383,105.6413
139.6383,105.6413
139.5814,105.8663
139.4881,106.0788
139.3612,106.2732
139.2040,106.4439
139.0208,106.5865
138.8167,106.6969
138.7069,106.7346
138.5972,106.7723
138.5972,106.7723
138.5972,106.7723
138.3682,106.8105
138.3682,106.8105
138.1362,106.8105
138.1362,106.8105
137.9072,106.7723
137.6877,106.6969
137.4836,106.5865
137.3004,106.4439
137.1432,106.2732
137.0163,106.0788
136.9230,105.8663
136.8661,105.6413
136.8469,105.4100
136.8543,105.3207
136.8402,105.2523
136.8184,105.2228
135.5271,103.9315
135.4657,103.8980
135.4394,103.8952
135.0013,103.8952
134.9812,103.8968
134.9774,103.8974
134.9674,103.8991
134.9011,103.8955
134.8989,103.8954
134.8922,103.8952
134.8750,103.8952
134.8716,103.8952
134.8609,103.8940
134.8512,103.8929
134.8445,103.8924
134.7760,103.8887
134.7625,103.8849
134.7427,103.8812
134.7288,103.8796
134.6638,103.8577
134.6574,103.8558
134.5912,103.8374
134.5912,103.8374
134.5789,103.8308
134.5604,103.8229
134.5471,103.8184
134.5471,103.8184
134.4883,103.7830
134.4825,103.7797
134.4218,103.7476
134.4112,103.7385
134.3948,103.7268
134.3828,103.7196
134.3330,103.6724
134.3280,103.6679
134.2757,103.6235
134.2672,103.6123
134.2538,103.5973
134.2436,103.5877
134.2051,103.5309
134.2012,103.5254
134.1951,103.5175
134.1596,103.4708
134.1538,103.4581
134.1439,103.4406
134.1360,103.4290
134.1106,103.3653
134.1080,103.3591
134.0791,103.2968
134.0761,103.2831
134.0702,103.2639
134.0650,103.2509
134.0539,103.1831
134.0527,103.1766
134.0379,103.1095
134.0379,103.0955
134.0363,103.0755
134.0340,103.0617
134.0377,102.9931
134.0379,102.9864
134.0379,99.6806
134.0379,99.6773
134.0368,99.6362
134.0357,99.5950
134.0357,99.5947
134.0379,99.5713
134.0379,87.3993
134.0375,87.3892
134.0331,87.3344
134.0442,87.2528
134.0446,87.2496
134.0535,87.1678
134.0535,87.1675
134.0589,87.1447
134.0589,87.1444
134.0873,87.0672
134.0884,87.0641
134.1147,86.9861
134.1148,86.9859
134.1250,86.9647
134.1251,86.9644
134.1694,86.8951
134.1711,86.8923
134.2120,86.8244
134.2135,86.8218
134.2137,86.8216
134.2282,86.8031
134.2283,86.8029
134.2865,86.7447
134.2888,86.7424
134.3266,86.7024
134.3454,86.6826
134.3456,86.6824
134.3637,86.6675
134.9687,86.0625
134.9756,86.0551
135.0112,86.0132
135.0174,86.0084
135.0767,85.9634
135.0793,85.9613
135.0888,85.9537
135.1434,85.9098
135.1436,85.9097
135.1636,85.8973
135.1638,85.8971
135.2385,85.8626
135.2415,85.8611
135.3152,85.8246
135.3152,85.8246
135.3152,85.8246
135.3154,85.8245
135.3376,85.8167
135.3378,85.8166
135.4182,85.7989
135.4214,85.7982
135.5012,85.7783
135.5015,85.7783
135.5248,85.7754
135.5251,85.7754
135.5251,85.7754
135.6073,85.7754
135.6107,85.7753
135.6254,85.7749
135.6929,85.7731
135.6929,85.7731
135.6931,85.7731
135.6932,85.7732
135.7165,85.7754
141.9008,85.7754
141.9678,85.7557
141.9885,85.7391
143.6844,84.0432
143.7179,83.9819
143.7207,83.9555
143.7207,79.8892
143.7010,79.8222
143.6729,79.7914
143.6504,79.7739
143.4932,79.6032
143.3663,79.4088
143.2730,79.1963
143.2161,78.9713
143.1969,78.7400
143.2161,78.5087
143.2730,78.2837
143.3663,78.0712
143.4932,77.8768
143.6504,77.7061
143.8336,77.5635
144.0377,77.4531
144.0377,77.4531
144.0377,77.4531
144.2572,77.3777
144.4537,77.3449
144.4862,77.3395
144.7182,77.3395
144.7507,77.3449
144.9472,77.3777
145.1667,77.4531
145.3708,77.5635
145.5540,77.7061
145.7112,77.8768
145.8381,78.0712
145.9314,78.2837
145.9883,78.5087
146.0075,78.7400
145.9883,78.9713
145.9883,78.9713
145.9883,78.9713
145.9314,79.1963
145.8381,79.4088
145.7112,79.6032
145.5764,79.7496
145.5540,79.7739
145.5315,79.7914
145.4907,79.8481
145.4837,79.8892
145.4837,84.3311
145.4841,84.3412
145.4886,84.3960
145.4775,84.4775
145.4771,84.4809
145.4682,84.5626
145.4681,84.5629
145.4627,84.5857
145.4627,84.5860
145.4343,84.6632
145.4332,84.6664
145.4275,84.6832
145.4091,84.7378
145.4069,84.7443
145.4068,84.7445
145.3967,84.7657
145.3966,84.7660
145.3966,84.7660
145.3966,84.7660
145.3932,84.7712
145.3523,84.8352
145.3505,84.8381
145.3081,84.9086
145.3079,84.9088
145.2935,84.9273
145.2933,84.9275
145.2352,84.9857
145.2328,84.9881
145.1762,85.0478
145.1760,85.0480
145.1579,85.0629
142.9695,87.2513
142.9627,87.2587
142.9271,87.3006
142.8615,87.3504
142.8589,87.3525
142.8070,87.3942
142.7948,87.4040
142.7946,87.4041
142.7747,87.4165
142.7744,87.4167
142.6998,87.4512
142.6968,87.4527
142.6231,87.4892
142.6228,87.4893
142.6007,87.4971
142.6004,87.4972
142.5370,87.5111
142.5201,87.5149
142.5169,87.5156
142.4370,87.5355
142.4367,87.5355
142.4134,87.5383
142.4132,87.5384
142.4132,87.5384
142.3309,87.5384
142.3276,87.5384
142.2453,87.5407
142.2451,87.5406
142.2217,87.5384
138.4096,87.5384
138.3425,87.5581
138.2968,87.6109
138.2868,87.6800
138.3103,87.7367
138.3260,87.7577
138.3664,87.8661
138.3763,87.8925
138.3827,87.9521
138.3827,87.9554
138.3827,87.9554
138.3827,89.8446
138.3827,89.8446
138.3827,89.8479
138.3763,89.9075
138.3260,90.0423
138.2397,90.1575
138.1245,90.2438
138.0465,90.2729
138.0443,90.2737
137.9884,90.3156
137.9639,90.3811
137.9788,90.4493
137.9964,90.4739
138.0375,90.5185
138.0973,90.5545
138.1287,90.5585
141.6457,90.5585
141.7127,90.5388
141.7334,90.5222
143.1684,89.0872
143.2019,89.0258
143.2043,88.9893
143.1969,88.9000
143.2161,88.6687
143.2730,88.4437
143.3663,88.2312
143.4932,88.0368
143.6504,87.8661
143.8336,87.7235
144.0377,87.6131
144.0377,87.6131
144.0377,87.6131
144.2572,87.5377
144.4537,87.5049
144.4862,87.4995
144.7047,87.4995
144.7717,87.4798
144.7924,87.4632
147.3481,84.9074
147.3816,84.8461
147.3766,84.7764
147.3517,84.7358
147.3032,84.6832
147.2397,84.5860
147.1763,84.4888
147.0830,84.2763
147.0261,84.0513
147.0069,83.8200
147.0261,83.5887
147.0830,83.3637
147.1763,83.1512
147.3032,82.9568
147.4604,82.7861
147.6436,82.6435
147.8477,82.5331
147.8477,82.5331
147.8477,82.5331
148.0672,82.4577
148.2637,82.4249
148.2962,82.4195
148.5282,82.4195
148.5607,82.4249
148.7572,82.4577
148.9767,82.5331
149.1808,82.6435
149.3640,82.7861
149.5212,82.9568
149.6481,83.1512
149.7414,83.3637
149.7983,83.5887
149.8175,83.8200
149.7983,84.0513
149.7983,84.0513
149.7983,84.0513
149.7414,84.2763
149.6481,84.4888
149.5212,84.6832
149.3812,84.8352
149.3640,84.8539
149.3415,84.8714
149.3007,84.9281
149.2937,84.9692
149.2937,85.0491
149.2941,85.0592
149.2986,85.1140
149.2875,85.1955
149.2871,85.1989
149.2782,85.2806
149.2781,85.2809
149.2727,85.3037
149.2727,85.3040
149.2443,85.3812
149.2432,85.3844
149.2169,85.4623
149.2168,85.4626
149.2067,85.4837
149.2066,85.4840
149.2066,85.4840
149.2066,85.4840
149.1983,85.4968
149.1623,85.5533
149.1605,85.5561
149.1181,85.6266
149.1179,85.6268
149.1035,85.6453
149.1033,85.6455
149.0452,85.7037
149.0428,85.7061
148.9862,85.7658
148.9860,85.7660
148.9679,85.7809
146.0360,88.7128
146.0025,88.7742
146.0001,88.8107
146.0075,88.9000
145.9883,89.1313
145.9883,89.1313
145.9883,89.1313
145.9471,89.2940
145.9314,89.3563
145.8613,89.5161
145.8381,89.5688
145.7112,89.7632
145.5540,89.9339
145.3708,90.0765
145.1667,90.1869
145.0860,90.2146
144.9472,90.2623
144.9472,90.2623
144.9472,90.2623
144.7182,90.3005
144.7182,90.3005
144.4997,90.3005
144.4327,90.3202
144.4120,90.3368
142.9800,91.7688
142.9465,91.8301
142.9437,91.8565
142.9437,96.6408
142.9634,96.7078
142.9915,96.7386
143.0140,96.7561
143.1712,96.9268
143.2981,97.1212
143.3914,97.3337
143.3914,97.3337
143.3914,97.3337
143.4443,97.5429
143.4483,97.5587
143.4675,97.7900
143.4483,98.0213
143.4483,98.0213
143.4483,98.0213
143.4039,98.1968
143.3914,98.2463
143.3587,98.3208
143.2981,98.4588
143.1712,98.6532
143.1234,98.7050
143.0925,98.7677
143.1004,98.8371
143.1445,98.8912
143.2109,98.9129
143.2147,98.9130
144.7197,98.9130
144.7868,98.8933
144.8325,98.8405
144.8425,98.7713
144.8134,98.7078
144.8110,98.7050
144.7632,98.6532
144.6363,98.4588
144.5430,98.2463
144.4861,98.0213
144.4669,97.7900
144.4861,97.5587
144.5430,97.3337
144.6363,97.1212
144.7632,96.9268
144.9204,96.7561
145.1036,96.6135
145.3077,96.5031
145.3077,96.5031
145.3077,96.5031
145.5272,96.4277
145.7237,96.3949
145.7562,96.3895
145.9882,96.3895
146.0207,96.3949
146.2172,96.4277
146.4367,96.5031
146.6408,96.6135
146.8240,96.7561
146.9812,96.9268
147.1081,97.1212
147.2014,97.3337
147.2014,97.3337
147.2014,97.3337
147.2543,97.5429
147.2583,97.5587
147.2775,97.7900
147.2583,98.0213
147.2583,98.0213
147.2583,98.0213
147.2139,98.1968
147.2014,98.2463
147.1687,98.3208
147.1081,98.4588
146.9812,98.6532
146.9083,98.7324
146.8240,98.8239
146.8015,98.8414
146.7607,98.8981
146.7537,98.9392
146.7537,99.8937
146.7734,99.9607
146.7900,99.9814
150.0308,103.2222
150.0921,103.2557
150.1185,103.2585
150.7032,103.2585
150.7702,103.2388
150.8160,103.1860
150.8265,103.1478
150.8268,103.1448
150.8281,103.1325
150.8784,102.9977
150.9647,102.8825
151.0799,102.7962
151.2147,102.7459
151.2743,102.7395
151.2776,102.7395
153.1668,102.7395
153.1668,102.7395
153.1701,102.7395
153.1734,102.7399
153.1734,102.7399
153.2297,102.7459
153.3645,102.7962
153.4797,102.8825
153.5660,102.9977
153.6000,103.0889
153.6419,103.1448
153.7074,103.1692
153.7756,103.1544
153.8039,103.1332
154.2938,102.6433
154.3273,102.5820
154.3301,102.5556
154.3301,97.2186
154.3297,97.2086
154.3253,97.1537
154.3364,97.0722
154.3368,97.0689
154.3457,96.9871
154.3458,96.9869
154.3511,96.9640
154.3512,96.9638
154.3795,96.8865
154.3806,96.8834
154.4069,96.8054
154.4070,96.8052
154.4172,96.7840
154.4173,96.7838
154.4616,96.7144
154.4633,96.7117
154.4911,96.6654
154.5058,96.6411
154.5059,96.6409
154.5204,96.6225
154.5205,96.6222
154.5787,96.5641
154.5810,96.5617
154.6076,96.5336
154.6376,96.5019
154.6378,96.5018
154.6559,96.4868
157.7572,93.3856
157.7640,93.3782
157.7996,93.3363
157.8327,93.3112
157.8651,93.2865
157.8678,93.2844
157.8772,93.2768
157.9319,93.2329
157.9321,93.2328
157.9520,93.2204
157.9523,93.2202
158.0269,93.1857
158.0299,93.1842
158.1036,93.1477
158.1036,93.1477
158.1036,93.1477
158.1039,93.1476
158.1260,93.1398
158.1263,93.1397
158.2066,93.1220
158.2099,93.1213
158.2897,93.1014
158.2900,93.1014
158.3133,93.0986
158.3135,93.0985
158.3135,93.0985
158.3958,93.0985
158.3991,93.0985
158.4139,93.0981
158.4814,93.0962
158.4814,93.0962
158.4815,93.0963
158.4816,93.0963
158.5050,93.0985
159.9657,93.0985
160.0328,93.0788
160.0569,93.0585
160.0857,93.0273
160.1604,92.9461
160.3436,92.8035
160.5477,92.6931
160.5477,92.6931
160.5477,92.6931
160.7672,92.6177
160.9637,92.5849
160.9962,92.5795
161.2282,92.5795
161.2607,92.5849
161.4572,92.6177
161.6767,92.6931
161.8808,92.8035
162.0640,92.9461
162.1675,93.0585
162.2273,93.0945
162.2587,93.0985
167.6853,93.0985
167.7524,93.0788
167.7975,93.0273
167.8680,92.8776
167.8945,92.8213
168.0563,92.5662
168.0971,92.5169
168.1397,92.4654
168.2489,92.3335
168.4690,92.1267
168.4936,92.1088
168.7103,91.9515
168.7103,91.9515
168.7134,91.9492
168.7168,91.9473
168.7168,91.9473
168.9747,91.8055
168.9747,91.8055
168.9781,91.8037
168.9817,91.8022
168.9817,91.8022
169.2553,91.6939
169.2553,91.6939
169.2589,91.6925
169.2627,91.6915
169.2627,91.6915
169.5477,91.6183
169.5477,91.6183
169.5515,91.6174
169.5554,91.6169
169.5554,91.6169
169.8473,91.5800
169.8473,91.5800
169.8512,91.5795
170.1532,91.5795
170.1571,91.5800
170.1571,91.5800
170.4490,91.6169
170.4490,91.6169
170.4529,91.6174
170.4567,91.6183
170.4567,91.6183
170.7417,91.6915
170.7417,91.6915
170.7455,91.6925
170.7491,91.6939
170.7491,91.6939
171.0227,91.8022
171.0227,91.8022
171.0263,91.8037
171.0297,91.8055
171.0297,91.8055
171.2876,91.9473
171.2876,91.9473
171.2910,91.9492
171.2941,91.9515
171.2941,91.9515
171.5322,92.1244
171.5322,92.1244
171.5354,92.1267
171.5382,92.1294
171.5382,92.1294
171.7527,92.3308
171.7527,92.3308
171.7555,92.3335
171.7580,92.3365
171.7580,92.3365
171.9456,92.5632
171.9456,92.5632
171.9481,92.5662
171.9502,92.5695
171.9502,92.5695
172.1078,92.8180
172.1079,92.8180
172.1099,92.8213
172.1116,92.8248
172.1116,92.8248
172.2369,93.0910
172.2385,93.0946
172.2397,93.0983
172.2397,93.0983
172.3003,93.2845
172.3397,93.3422
172.4041,93.3694
172.4729,93.3575
172.5244,93.3103
172.5422,93.2462
172.5422,84.7646
171.4027,84.7646
171.4027,84.7679
171.4023,84.7712
171.4023,84.7712
171.3963,84.8275
171.3893,84.8461
171.3460,84.9623
171.2597,85.0775
171.1445,85.1638
171.0097,85.2141
170.9501,85.2205
169.0543,85.2205
168.9947,85.2141
168.8599,85.1638
168.7447,85.0775
168.6584,84.9623
168.6081,84.8275
168.6065,84.8122
168.5797,84.7477
168.5223,84.7078
168.4832,84.7015
167.8787,84.7015
167.8117,84.7212
167.7910,84.7378
160.3013,92.2275
160.2945,92.2350
160.2588,92.2769
160.2588,92.2769
160.1933,92.3267
160.1907,92.3287
160.1266,92.3803
160.1264,92.3804
160.1064,92.3927
160.1062,92.3929
160.0424,92.4224
160.0315,92.4275
160.0285,92.4289
159.9548,92.4654
159.9546,92.4655
159.9324,92.4733
159.9322,92.4734
159.8687,92.4874
159.8519,92.4911
159.8486,92.4919
159.7688,92.5117
159.7685,92.5117
159.7452,92.5146
159.7449,92.5146
159.7449,92.5146
159.6627,92.5146
159.6593,92.5147
159.6567,92.5148
159.5771,92.5169
159.5768,92.5169
159.5535,92.5146
156.2555,92.5146
156.1885,92.5343
156.1679,92.5510
154.9260,93.7928
154.8925,93.8542
154.8901,93.8907
154.8975,93.9800
154.8783,94.2113
154.8783,94.2113
154.8783,94.2113
154.8606,94.2815
154.8214,94.4363
154.7491,94.6010
154.7281,94.6488
154.6012,94.8432
154.4440,95.0139
154.2608,95.1565
154.0567,95.2669
153.9469,95.3046
153.8372,95.3423
153.8372,95.3423
153.8372,95.3423
153.6082,95.3805
153.6082,95.3805
153.3897,95.3805
153.3227,95.4002
153.3020,95.4168
153.1400,95.5788
153.1065,95.6401
153.1037,95.6665
153.1037,97.9108
153.1234,97.9778
153.1515,98.0086
153.1740,98.0261
153.3312,98.1968
153.4581,98.3911
153.5514,98.6037
153.6083,98.8287
153.6275,99.0600
153.6083,99.2913
153.6083,99.2913
153.6083,99.2913
153.5514,99.5161
153.5514,99.5163
153.4808,99.6773
153.4581,99.7288
153.3312,99.9232
153.1740,100.0939
152.9908,100.2365
152.7867,100.3469
152.6829,100.3826
152.5672,100.4223
152.5672,100.4223
152.5672,100.4223
152.3382,100.4605
152.3382,100.4605
152.1062,100.4605
152.1062,100.4605
151.8772,100.4223
151.6577,100.3469
151.4536,100.2365
151.2704,100.0939
151.1132,99.9232
150.9863,99.7288
150.8930,99.5163
150.8361,99.2913
150.8169,99.0600
150.8361,98.8287
150.8930,98.6037
150.9863,98.3912
151.1132,98.1968
151.2704,98.0261
151.2929,98.0086
151.3337,97.9519
151.3407,97.9108
151.3407,95.2909
151.3403,95.2808
151.3358,95.2260
151.3469,95.1444
151.3473,95.1412
151.3562,95.0594
151.3563,95.0591
151.3617,95.0363
151.3617,95.0360
151.3901,94.9588
151.3912,94.9557
151.4175,94.8777
151.4176,94.8774
151.4277,94.8563
151.4278,94.8560
151.4278,94.8560
151.4278,94.8560
151.4438,94.8311
151.4633,94.7640
151.4435,94.6970
151.3905,94.6513
151.3214,94.6416
151.2643,94.6656
151.2517,94.6751
151.2491,94.6772
151.1849,94.7287
151.1847,94.7288
151.1648,94.7412
151.1645,94.7414
151.1157,94.7640
151.0898,94.7759
151.0868,94.7774
151.0132,94.8139
151.0129,94.8140
150.9908,94.8218
150.9905,94.8219
150.9271,94.8359
150.9102,94.8396
150.9070,94.8403
150.8271,94.8602
150.8268,94.8602
150.8035,94.8631
150.8033,94.8631
150.8033,94.8631
150.7210,94.8631
150.7177,94.8632
150.6354,94.8654
150.6352,94.8653
150.6118,94.8631
149.0671,94.8631
149.0571,94.8635
149.0543,94.8637
149.0022,94.8680
148.9668,94.8632
148.9630,94.8626
148.9463,94.8615
145.7487,94.8615
145.6816,94.8812
145.6575,94.9015
145.5540,95.0139
145.3708,95.1565
145.1667,95.2669
145.0569,95.3046
144.9472,95.3423
144.9472,95.3423
144.9472,95.3423
144.7182,95.3805
144.7182,95.3805
144.4862,95.3805
144.4862,95.3805
144.2572,95.3423
144.0377,95.2669
143.8336,95.1565
143.6504,95.0139
143.4932,94.8432
143.3663,94.6488
143.2730,94.4363
143.2161,94.2113
143.1969,93.9800
143.2161,93.7487
143.2730,93.5237
143.3663,93.3112
143.4932,93.1168
143.6504,92.9461
143.8336,92.8035
144.0377,92.6931
144.0377,92.6931
144.0377,92.6931
144.2572,92.6177
144.4537,92.5849
144.4862,92.5795
144.7182,92.5795
144.7507,92.5849
144.9472,92.6177
145.1667,92.6931
145.3708,92.8035
145.5540,92.9461
145.6575,93.0585
145.7173,93.0945
145.7487,93.0985
148.9838,93.0985
148.9938,93.0981
149.0371,93.0946
149.0487,93.0936
149.0487,93.0936
149.0879,93.0990
149.1046,93.1001
150.2909,93.1001
150.3579,93.0804
150.3786,93.0638
152.3453,91.0971
152.3638,91.0734
152.3868,91.0352
152.3893,91.0309
152.3895,91.0307
152.4040,91.0122
152.4041,91.0120
152.4623,90.9539
152.4646,90.9515
152.4768,90.9386
152.5212,90.8917
152.5214,90.8916
152.5395,90.8766
153.8444,89.5718
153.8779,89.5105
153.8807,89.4841
153.8807,86.3600
153.6275,86.3600
153.6083,86.5913
153.6083,86.5913
153.6083,86.5913
153.5514,86.8161
153.5514,86.8163
153.5180,86.8923
153.4581,87.0288
153.3312,87.2232
153.2140,87.3504
153.1740,87.3939
153.1515,87.4114
153.1107,87.4681
153.1037,87.5092
153.1037,88.8591
153.1041,88.8692
153.1086,88.9240
153.0975,89.0055
153.0971,89.0089
153.0885,89.0872
153.0882,89.0906
153.0881,89.0909
153.0827,89.1137
153.0827,89.1140
153.0543,89.1912
153.0532,89.1944
153.0269,89.2723
153.0268,89.2726
153.0167,89.2937
153.0166,89.2940
153.0166,89.2940
153.0166,89.2940
152.9767,89.3563
152.9723,89.3633
152.9705,89.3661
152.9281,89.4366
152.9279,89.4368
152.9135,89.4553
152.9133,89.4555
152.8552,89.5137
152.8528,89.5161
152.8001,89.5718
152.7962,89.5758
152.7960,89.5760
152.7779,89.5909
150.3344,92.0344
150.3276,92.0418
150.2920,92.0837
150.2264,92.1336
150.2239,92.1356
150.1597,92.1871
150.1595,92.1872
150.1396,92.1996
150.1393,92.1998
150.0796,92.2274
150.0647,92.2343
150.0616,92.2358
149.9880,92.2723
149.9877,92.2724
149.9656,92.2802
149.9653,92.2803
149.9653,92.2803
149.9653,92.2803
149.9299,92.2881
149.8850,92.2980
149.8818,92.2987
149.8019,92.3186
149.8016,92.3186
149.7783,92.3214
149.7781,92.3215
149.7781,92.3215
149.6958,92.3215
149.6925,92.3215
149.6899,92.3216
149.6102,92.3238
149.6100,92.3237
149.5866,92.3215
148.2887,92.3215
148.2216,92.3412
148.1975,92.3615
148.0940,92.4739
147.9108,92.6165
147.7067,92.7269
147.6362,92.7511
147.4872,92.8023
147.4872,92.8023
147.4872,92.8023
147.2582,92.8405
147.2582,92.8405
147.0262,92.8405
147.0262,92.8405
146.7972,92.8023
146.5777,92.7269
146.3736,92.6165
146.1904,92.4739
146.0332,92.3032
145.9063,92.1088
145.8130,91.8963
145.7561,91.6713
145.7369,91.4400
145.7561,91.2087
145.8130,90.9837
145.9063,90.7712
146.0332,90.5768
146.1904,90.4061
146.3736,90.2635
146.5777,90.1531
146.5777,90.1531
146.5777,90.1531
146.7972,90.0777
147.0092,90.0423
147.0262,90.0395
147.2582,90.0395
147.2752,90.0423
147.4872,90.0777
147.7067,90.1531
147.7067,90.1531
147.7067,90.1531
147.8205,90.2146
147.9108,90.2635
148.0940,90.4061
148.1975,90.5185
148.2573,90.5545
148.2887,90.5585
149.2657,90.5585
149.3327,90.5388
149.3534,90.5222
151.3044,88.5712
151.3379,88.5099
151.3407,88.4835
151.3407,87.5092
151.3210,87.4422
151.2929,87.4114
151.2704,87.3939
151.1132,87.2232
150.9863,87.0288
150.8930,86.8163
150.8361,86.5913
150.8169,86.3600
150.8361,86.1287
150.8930,85.9037
150.9863,85.6912
151.1132,85.4968
151.2704,85.3261
151.2929,85.3086
151.3337,85.2519
151.3407,85.2108
151.3407,81.6965
151.3210,81.6295
151.3044,81.6088
145.8956,76.2000
143.4675,76.2000
143.4483,76.4313
143.4483,76.4313
143.4483,76.4313
143.4146,76.5645
143.3914,76.6563
143.3640,76.7186
143.2981,76.8688
143.1712,77.0632
143.0140,77.2339
143.0140,77.2339
142.9915,77.2514
142.9507,77.3081
142.9437,77.3492
142.9437,82.5091
142.9441,82.5192
142.9486,82.5740
142.9375,82.6555
142.9371,82.6589
142.9282,82.7406
142.9281,82.7409
142.9227,82.7637
142.9227,82.7640
142.8943,82.8412
142.8932,82.8444
142.8669,82.9223
142.8668,82.9226
142.8567,82.9437
142.8566,82.9440
142.8566,82.9440
142.8566,82.9440
142.8305,82.9848
142.8123,83.0133
142.8105,83.0161
142.7681,83.0866
142.7679,83.0868
142.7535,83.1053
142.7533,83.1055
142.6952,83.1637
142.6928,83.1661
142.6398,83.2220
142.6362,83.2258
142.6360,83.2260
142.6179,83.2409
142.2260,83.6328
142.1925,83.6942
142.1901,83.7307
142.1975,83.8200
142.1783,84.0513
142.1783,84.0513
142.1783,84.0513
142.1214,84.2763
142.0281,84.4888
141.9012,84.6832
141.7440,84.8539
141.5608,84.9965
141.3567,85.1069
141.2469,85.1446
141.1372,85.1823
141.1372,85.1823
141.1372,85.1823
140.9082,85.2205
140.9082,85.2205
140.6762,85.2205
140.6762,85.2205
140.4472,85.1823
140.2277,85.1069
140.0236,84.9965
139.8404,84.8539
139.6832,84.6832
139.5563,84.4888
139.4630,84.2763
139.4061,84.0513
139.3869,83.8200
139.4061,83.5887
139.4630,83.3637
139.5563,83.1512
139.6832,82.9568
139.8404,82.7861
140.0236,82.6435
140.2277,82.5331
140.2277,82.5331
140.2277,82.5331
140.4472,82.4577
140.6437,82.4249
140.6762,82.4195
140.8947,82.4195
140.9617,82.3998
140.9824,82.3832
141.1444,82.2212
141.1779,82.1599
141.1807,82.1335
141.1807,77.3492
141.1610,77.2822
141.1329,77.2514
141.1104,77.2339
140.9532,77.0632
140.8263,76.8688
140.7330,76.6563
140.6761,76.4313
140.6569,76.2000
140.6761,75.9687
140.7330,75.7437
140.8263,75.5312
140.9532,75.3368
141.1104,75.1661
141.2936,75.0235
141.4977,74.9131
141.4977,74.9131
141.4977,74.9131
141.7172,74.8377
141.8889,74.8090
141.9462,74.7995
142.1782,74.7995
142.2240,74.8071
142.4072,74.8377
142.6267,74.9131
142.8308,75.0235
143.0140,75.1661
143.1712,75.3368
143.2981,75.5311
143.3914,75.7437
143.3914,75.7437
143.3914,75.7437
143.4253,75.8779
143.4483,75.9687
143.4675,76.2000
145.8956,76.2000
144.7924,75.0968
144.7311,75.0633
144.7047,75.0605
144.4862,75.0605
144.4862,75.0605
144.2572,75.0223
144.0377,74.9469
143.8336,74.8365
143.6504,74.6939
143.4932,74.5232
143.3663,74.3288
143.2730,74.1163
143.2161,73.8913
143.1969,73.6600
143.2161,73.4287
143.2730,73.2037
143.3663,72.9912
143.4932,72.7968
143.5417,72.7442
143.5726,72.6816
143.5647,72.6121
143.5381,72.5726
140.9824,70.0168
140.9211,69.9833
140.8947,69.9805
140.6762,69.9805
140.6762,69.9805
140.4472,69.9423
140.2277,69.8669
140.0236,69.7565
139.8404,69.6139
139.6832,69.4432
139.5563,69.2488
139.4630,69.0363
139.4061,68.8113
139.3869,68.5800
139.4061,68.3487
139.4630,68.1237
139.5563,67.9112
139.6832,67.7168
139.8404,67.5461
140.0236,67.4035
140.1964,67.3100
137.0679,67.3100
137.0473,67.5454
137.0011,67.7177
136.9861,67.7737
136.8862,67.9878
136.7507,68.1814
136.5836,68.3485
136.3900,68.4840
136.1759,68.5839
135.9476,68.6451
135.7712,68.6605
135.7685,68.6605
135.6559,68.6605
135.6532,68.6605
135.4768,68.6451
135.2485,68.5839
135.0344,68.4840
134.8408,68.3485
134.6737,68.1814
134.5382,67.9878
134.4383,67.7737
134.3771,67.5454
134.3565,67.3100
134.3771,67.0746
134.4383,66.8463
134.5382,66.6322
134.6737,66.4386
134.8408,66.2715
135.0344,66.1360
135.2485,66.0361
135.2485,66.0361
135.4768,65.9749
135.6505,65.9597
135.6505,65.9597
135.6532,65.9595
135.7712,65.9595
135.7739,65.9597
135.7739,65.9597
135.9476,65.9749
136.1759,66.0361
136.3900,66.1360
136.5836,66.2715
136.7507,66.4386
136.7507,66.4386
136.7507,66.4386
136.7946,66.5013
136.8862,66.6322
136.9861,66.8463
137.0473,67.0746
137.0679,67.3100
140.1964,67.3100
140.2277,67.2931
140.2277,67.2931
140.2277,67.2931
140.4472,67.2177
140.6189,67.1890
140.6762,67.1795
140.9082,67.1795
140.9540,67.1871
141.1372,67.2177
141.3567,67.2931
141.5608,67.4035
141.7440,67.5461
141.9012,67.7168
142.0281,67.9111
142.1214,68.1237
142.1783,68.3487
142.1975,68.5800
142.1901,68.6692
142.2042,68.7377
142.2260,68.7672
145.1966,71.7378
145.2040,71.7446
145.2459,71.7802
145.2957,71.8457
145.2978,71.8484
145.3493,71.9125
145.3494,71.9127
145.3618,71.9326
145.3620,71.9329
145.3965,72.0075
145.3980,72.0105
145.4345,72.0842
145.4346,72.0845
145.4424,72.1066
145.4425,72.1069
145.4602,72.1872
145.4609,72.1905
145.4808,72.2703
145.4808,72.2706
145.4836,72.2939
145.4837,72.2941
145.4837,72.3764
145.4837,72.3797
145.4860,72.4620
145.4859,72.4622
145.4837,72.4856
145.4837,72.5108
145.5034,72.5778
145.5315,72.6086
145.5540,72.6261
145.7112,72.7968
145.8381,72.9911
145.9314,73.2037
145.9314,73.2037
145.9314,73.2037
145.9761,73.3805
145.9883,73.4287
146.0075,73.6600
146.0001,73.7493
146.0142,73.8177
146.0360,73.8472
152.8166,80.6278
152.8240,80.6346
152.8659,80.6702
152.9157,80.7357
152.9178,80.7384
152.9693,80.8025
152.9694,80.8027
152.9818,80.8226
152.9820,80.8229
153.0165,80.8975
153.0180,80.9005
153.0545,80.9742
153.0546,80.9745
153.0624,80.9966
153.0625,80.9969
153.0802,81.0772
153.0809,81.0805
153.1008,81.1603
153.1008,81.1606
153.1036,81.1839
153.1037,81.1841
153.1037,81.2664
153.1037,81.2697
153.1060,81.3520
153.1059,81.3522
153.1037,81.3756
153.1037,85.2108
153.1234,85.2778
153.1515,85.3086
153.1740,85.3261
153.3312,85.4968
153.4581,85.6911
153.5514,85.9037
153.5514,85.9037
153.5514,85.9037
153.5791,86.0132
153.6083,86.1287
153.6275,86.3600
153.8807,86.3600
153.8807,79.8892
153.8610,79.8222
153.8329,79.7914
153.8104,79.7739
153.6532,79.6032
153.5263,79.4088
153.4330,79.1963
153.3761,78.9713
153.3569,78.7400
153.3643,78.6507
153.3502,78.5823
153.3284,78.5528
147.8178,73.0422
147.8104,73.0354
147.7685,72.9998
147.7186,72.9343
147.7166,72.9317
147.6651,72.8675
147.6650,72.8673
147.6526,72.8474
147.6524,72.8471
147.6179,72.7724
147.6164,72.7694
147.5799,72.6958
147.5799,72.6958
147.5799,72.6958
147.5798,72.6955
147.5720,72.6734
147.5719,72.6731
147.5542,72.5928
147.5535,72.5896
147.5336,72.5097
147.5336,72.5094
147.5308,72.4861
147.5307,72.4859
147.5307,72.4036
147.5307,72.4003
147.5300,72.3764
147.5284,72.3180
147.5285,72.3178
147.5307,72.2944
147.5307,69.7292
147.5110,69.6622
147.4829,69.6314
147.4604,69.6139
147.3032,69.4432
147.1763,69.2488
147.0830,69.0363
147.0261,68.8113
147.0069,68.5800
147.0261,68.3487
147.0830,68.1237
147.1763,67.9112
147.3032,67.7168
147.4604,67.5461
147.6436,67.4035
147.8477,67.2931
147.8477,67.2931
147.8477,67.2931
148.0672,67.2177
148.2389,67.1890
148.2962,67.1795
148.5282,67.1795
148.5740,67.1871
148.7572,67.2177
148.9767,67.2931
149.1808,67.4035
149.3640,67.5461
149.5212,67.7168
149.6481,67.9111
149.7414,68.1237
149.7983,68.3487
149.8175,68.5800
149.7983,68.8113
149.7983,68.8113
149.7983,68.8113
149.7414,69.0363
149.6481,69.2488
149.5212,69.4432
149.3640,69.6139
149.3640,69.6139
149.3415,69.6314
149.3007,69.6881
149.2937,69.7292
149.2937,71.9735
149.3134,72.0405
149.3300,72.0612
154.5720,77.3032
154.6333,77.3367
154.6597,77.3395
154.8782,77.3395
154.9107,77.3449
155.1072,77.3777
155.3267,77.4531
155.5308,77.5635
155.7140,77.7061
155.7223,77.7152
155.7822,77.7511
155.8521,77.7490
155.9097,77.7095
155.9297,77.6745
155.9584,77.5977
156.0447,77.4825
156.1599,77.3962
156.2947,77.3459
156.3543,77.3395
156.3576,77.3395
157.4047,77.3395
157.4717,77.3198
157.4924,77.3032
159.0967,75.6989
159.1302,75.6375
159.1330,75.6112
159.1330,75.3465
159.1133,75.2795
159.0967,75.2588
157.5924,73.7545
157.5311,73.7210
157.5047,73.7182
156.2576,73.7182
156.2543,73.7182
156.1947,73.7118
156.0599,73.6615
155.9447,73.5752
155.8584,73.4600
155.8081,73.3252
155.8017,73.2655
155.8017,71.1698
155.8081,71.1102
155.8584,70.9753
155.9447,70.8601
156.0599,70.7739
156.1947,70.7236
156.2543,70.7172
156.2576,70.7172
158.3468,70.7172
158.3468,70.7172
158.3501,70.7172
158.3534,70.7175
158.3534,70.7175
158.4097,70.7236
158.5445,70.7739
158.6597,70.8601
158.7460,70.9753
158.7963,71.1102
158.7963,71.1102
158.8027,71.1698
158.8027,71.1731
158.8027,72.4202
158.8224,72.4872
158.8390,72.5079
160.3433,74.0122
160.4047,74.0457
160.4310,74.0485
168.4832,74.0485
168.5502,74.0288
168.5960,73.9760
168.6065,73.9378
168.6081,73.9225
168.6584,73.7877
168.7447,73.6725
168.8599,73.5862
168.8599,73.5862
168.8599,73.5862
168.9406,73.5561
168.9965,73.5142
169.0210,73.4488
169.0061,73.3805
168.9885,73.3559
168.8936,73.2528
168.7667,73.0586
168.6735,72.8461
168.6213,72.6400
169.5685,72.6400
169.5427,72.5998
169.5022,72.4619
169.5022,72.3181
169.5427,72.1802
169.5685,72.1400
168.6213,72.1400
168.6735,71.9339
168.7667,71.7214
168.8936,71.5272
169.0508,71.3565
169.2338,71.2140
169.4379,71.1035
169.6573,71.0282
169.7522,71.0124
169.7522,71.9545
169.8599,71.9053
169.9664,71.8900
170.0380,71.8900
170.1445,71.9053
170.2522,71.9545
170.2522,71.0124
170.2522,71.0124
170.3471,71.0282
170.5665,71.1035
170.7706,71.2140
170.9536,71.3565
171.1108,71.5272
171.2377,71.7214
171.3309,71.9339
171.3831,72.1400
170.4359,72.1400
170.4617,72.1802
170.5022,72.3181
170.5022,72.4619
170.4617,72.5998
170.4359,72.6400
171.3831,72.6400
171.3309,72.8461
171.2377,73.0586
171.1108,73.2528
171.0159,73.3559
170.9850,73.4186
170.9928,73.4880
171.0370,73.5422
171.0638,73.5561
171.1445,73.5862
171.2597,73.6725
171.3460,73.7877
171.3963,73.9225
171.4020,73.9760
171.4027,73.9821
171.4027,73.9854
171.4027,73.9854
171.4027,75.8746
171.4027,75.8746
171.4027,75.8779
171.4023,75.8812
171.4023,75.8812
171.3979,75.9222
171.3963,75.9375
171.3460,76.0723
171.2597,76.1875
171.1445,76.2738
171.0097,76.3241
170.9501,76.3305
169.0543,76.3305
168.9947,76.3241
168.8599,76.2738
168.7447,76.1875
168.6584,76.0723
168.6081,75.9375
168.6065,75.9222
168.5797,75.8577
168.5223,75.8178
168.4832,75.8115
161.0200,75.8115
160.9530,75.8312
160.9072,75.8840
160.8960,75.9355
160.8960,75.9868
160.8964,75.9969
160.9009,76.0517
160.8898,76.1332
160.8894,76.1365
160.8825,76.2000
160.8805,76.2183
160.8804,76.2186
160.8751,76.2414
160.8750,76.2417
160.8466,76.3189
160.8455,76.3221
160.8193,76.4000
160.8191,76.4002
160.8090,76.4214
160.8089,76.4216
160.8089,76.4216
160.8089,76.4216
160.8027,76.4313
160.7646,76.4909
160.7628,76.4938
160.7204,76.5643
160.7202,76.5645
160.7058,76.5830
160.7056,76.5832
160.6475,76.6413
160.6451,76.6438
160.5886,76.7035
160.5883,76.7036
160.5702,76.7186
158.7390,78.5498
158.7055,78.6111
158.7027,78.6375
158.7027,79.6846
158.7027,79.6846
158.7027,79.6879
158.6963,79.7475
158.6460,79.8823
158.5597,79.9975
158.4445,80.0838
158.3097,80.1341
158.2501,80.1405
156.3543,80.1405
156.2947,80.1341
156.1599,80.0838
156.0447,79.9975
155.9584,79.8823
155.9297,79.8055
155.8879,79.7496
155.8224,79.7251
155.7541,79.7400
155.7223,79.7648
155.7140,79.7739
155.6915,79.7914
155.6507,79.8481
155.6437,79.8892
155.6437,85.8956
155.6634,85.9626
155.7162,86.0084
155.7853,86.0183
155.8489,85.9893
155.8867,85.9305
155.8879,85.9260
155.8935,85.9039
155.9867,85.6914
156.0710,85.5624
156.8242,86.3156
156.8370,86.2349
156.8946,86.1220
156.9842,86.0324
157.0971,85.9748
157.1778,85.9620
156.4234,85.2076
156.4234,85.2076
156.4539,85.1839
156.6579,85.0735
156.8773,84.9982
157.1062,84.9600
157.3382,84.9600
157.5671,84.9982
157.7865,85.0735
157.9906,85.1840
158.0210,85.2076
158.0210,85.2076
157.2666,85.9620
157.3473,85.9748
157.4602,86.0324
157.5498,86.1220
157.6074,86.2349
157.6202,86.3156
158.3734,85.5624
158.4577,85.6914
158.5509,85.9039
158.6078,86.1288
158.6270,86.3600
158.6078,86.5912
158.5509,86.8161
158.4577,87.0286
158.3734,87.1576
157.6202,86.4044
157.6074,86.4851
157.5498,86.5980
157.4602,86.6876
157.3473,86.7452
157.2666,86.7580
158.0210,87.5124
157.9905,87.5361
157.7865,87.6465
157.5671,87.7218
157.3382,87.7600
157.1062,87.7600
156.8773,87.7218
156.6579,87.6465
156.4538,87.5360
156.4234,87.5124
157.1778,86.7580
157.0971,86.7452
156.9842,86.6876
156.8946,86.5980
156.8370,86.4851
156.8242,86.4044
156.0710,87.1576
155.9867,87.0286
155.8935,86.8161
155.8879,86.7940
155.8524,86.7338
155.7899,86.7024
155.7205,86.7098
155.6660,86.7535
155.6438,86.8198
155.6437,86.8244
155.6437,89.8597
155.6441,89.8698
155.6486,89.9246
155.6375,90.0061
155.6371,90.0095
155.6282,90.0912
155.6281,90.0915
155.6227,90.1143
155.6227,90.1146
155.5943,90.1918
155.5932,90.1950
155.5669,90.2729
155.5668,90.2731
155.5567,90.2943
155.5566,90.2946
155.5566,90.2946
155.5566,90.2946
155.5562,90.2951
155.5123,90.3638
155.5105,90.3667
155.4681,90.4372
155.4679,90.4374
155.4535,90.4559
155.4533,90.4561
155.3952,90.5143
155.3928,90.5167
155.3362,90.5764
155.3360,90.5766
155.3179,90.5915
155.2312,90.6782
155.1977,90.7396
155.2027,90.8092
155.2446,90.8652
155.3100,90.8896
155.3709,90.8784
155.3819,90.8734
155.4566,90.8388
155.4596,90.8374
155.5333,90.8008
155.5333,90.8008
155.5333,90.8008
155.5336,90.8008
155.5557,90.7930
155.5559,90.7929
155.6363,90.7752
155.6395,90.7744
155.7194,90.7546
155.7196,90.7546
155.7429,90.7517
155.7432,90.7516
155.7432,90.7516
155.8254,90.7516
155.8288,90.7516
155.8435,90.7512
155.9110,90.7494
155.9110,90.7494
155.9112,90.7494
155.9113,90.7494
155.9347,90.7516
159.2326,90.7516
159.2996,90.7320
159.3202,90.7153
166.8100,83.2256
166.8168,83.2182
166.8524,83.1763
166.8854,83.1512
166.9179,83.1265
166.9206,83.1244
166.9300,83.1168
166.9847,83.0729
166.9849,83.0728
167.0048,83.0604
167.0051,83.0602
167.0797,83.0257
167.0827,83.0242
167.1564,82.9877
167.1564,82.9877
167.1564,82.9877
167.1567,82.9876
167.1788,82.9798
167.1791,82.9797
167.2594,82.9620
167.2627,82.9613
167.3425,82.9414
167.3428,82.9414
167.3661,82.9386
167.3663,82.9385
167.3663,82.9385
167.4486,82.9385
167.4519,82.9385
167.4667,82.9381
167.5342,82.9362
167.5342,82.9362
167.5343,82.9363
167.5344,82.9363
167.5578,82.9385
168.4832,82.9385
168.5502,82.9188
168.5960,82.8660
168.6065,82.8278
168.6081,82.8125
168.6584,82.6777
168.7447,82.5625
168.8599,82.4762
168.8599,82.4762
168.8599,82.4762
168.9406,82.4461
168.9965,82.4042
169.0210,82.3388
169.0061,82.2705
168.9885,82.2459
168.8936,82.1428
168.7667,81.9486
168.6735,81.7361
168.6213,81.5300
169.5685,81.5300
169.5427,81.4898
169.5022,81.3519
169.5022,81.2081
169.5427,81.0702
169.5685,81.0300
168.6213,81.0300
168.6735,80.8239
168.7667,80.6114
168.8936,80.4172
169.0508,80.2465
169.2338,80.1040
169.4379,79.9935
169.6573,79.9182
169.7522,79.9024
169.7522,80.8445
169.8599,80.7953
169.9664,80.7800
170.0380,80.7800
170.1445,80.7953
170.2522,80.8445
170.2522,79.9024
170.2522,79.9024
170.3471,79.9182
170.5665,79.9935
170.7706,80.1040
170.9536,80.2465
171.1108,80.4172
171.2377,80.6114
171.3309,80.8239
171.3831,81.0300
170.4359,81.0300
170.4617,81.0702
170.5022,81.2081
170.5022,81.3519
170.4617,81.4898
170.4359,81.5300
171.3831,81.5300
171.3309,81.7361
171.2377,81.9486
171.1108,82.1428
171.0159,82.2459
170.9850,82.3086
170.9928,82.3780
171.0370,82.4322
171.0638,82.4461
171.1445,82.4762
171.2597,82.5625
171.3460,82.6777
171.3963,82.8125
171.4020,82.8660
171.4027,82.8721
171.4027,82.8754
171.4027,82.8754
171.4027,84.7646
171.4027,84.7646
172.5422,84.7646
172.5422,67.3100
171.3579,67.3100
171.3373,67.5454
171.2911,67.7177
171.2761,67.7737
171.1762,67.9878
171.0407,68.1814
170.8736,68.3485
170.6800,68.4840
170.4659,68.5839
170.2376,68.6451
170.0612,68.6605
170.0585,68.6605
169.9459,68.6605
169.9432,68.6605
169.7668,68.6451
169.5385,68.5839
169.3244,68.4840
169.1308,68.3485
168.9637,68.1814
168.8282,67.9878
168.7283,67.7737
168.6671,67.5454
168.6465,67.3100
168.6546,67.2177
158.8073,67.2177
158.7868,67.4654
158.7258,67.7064
158.6259,67.9340
158.5256,68.0876
158.5256,68.0876
157.7853,67.3472
157.7617,67.4275
157.6840,67.5485
157.5753,67.6426
157.4445,67.7024
157.4347,67.7038
158.1723,68.4413
158.1723,68.4413
158.1254,68.4777
157.9068,68.5960
157.6717,68.6768
157.4265,68.7177
157.1779,68.7177
156.9327,68.6768
156.6976,68.5960
156.4790,68.4777
156.4321,68.4413
157.1697,67.7038
157.1599,67.7024
157.0291,67.6426
156.9204,67.5485
156.8427,67.4275
156.8191,67.3472
156.0788,68.0876
155.9785,67.9340
155.8786,67.7064
155.8176,67.4654
155.7971,67.2177
155.8176,66.9699
155.8786,66.7290
155.9785,66.5013
156.0788,66.3478
156.8191,67.0882
156.8427,67.0078
156.9204,66.8869
157.0291,66.7927
157.1599,66.7330
157.1697,66.7316
156.4321,65.9941
156.4321,65.9941
156.4790,65.9576
156.6976,65.8393
156.9327,65.7586
157.1779,65.7177
157.4265,65.7177
157.6717,65.7586
157.9068,65.8393
158.1254,65.9576
158.1723,65.9941
158.1723,65.9941
157.4347,66.7316
157.4445,66.7330
157.5753,66.7927
157.6840,66.8869
157.7617,67.0078
157.7853,67.0882
158.5256,66.3478
158.6259,66.5013
158.7258,66.7290
158.7868,66.9699
158.8073,67.2177
168.6546,67.2177
168.6671,67.0746
168.7283,66.8463
168.8282,66.6322
168.9637,66.4386
169.1308,66.2715
169.3244,66.1360
169.5385,66.0361
169.5385,66.0361
169.7668,65.9749
169.9405,65.9597
169.9405,65.9597
169.9432,65.9595
170.0612,65.9595
170.0639,65.9597
170.0639,65.9597
170.2376,65.9749
170.4659,66.0361
170.6800,66.1360
170.8736,66.2715
171.0407,66.4386
171.0407,66.4386
171.0407,66.4386
171.0846,66.5013
171.1762,66.6322
171.2761,66.8463
171.3373,67.0746
171.3579,67.3100
172.5422,67.3100
172.5422,64.8940
172.5225,64.8270
172.4697,64.7812
172.4182,64.7700
133.2962,64.7700
Z" /> 
</g>
</g>
</g>
<g style="fill:#000000; fill-opacity:1.0000; 
stroke:#000000; stroke-width:0.0000; stroke-opacity:1; 
stroke-linecap:round; stroke-linejoin:round;">
<circle cx="138.2522" cy="97.7900" r="0.4000" /> 
</g>
<g style="fill:#000000; fill-opacity:1.0000; 
stroke:#000000; stroke-width:0.0212; stroke-opacity:1; 
stroke-linecap:round; stroke-linejoin:round;">
</g>
<g style="fill:#000000; fill-opacity:1.0000; 
stroke:#000000; stroke-width:0.0000; stroke-opacity:1; 
stroke-linecap:round; stroke-linejoin:round;">
<circle cx="138.2522" cy="105.4100" r="0.4000" /> 
</g>
<g style="fill:#000000; fill-opacity:1.0000; 
stroke:#000000; stroke-width:0.0212; stroke-opacity:1; 
stroke-linecap:round; stroke-linejoin:round;">
</g>
<g style="fill:#000000; fill-opacity:1.0000; 
stroke:#000000; stroke-width:0.0000; stroke-opacity:1; 
stroke-linecap:round; stroke-linejoin:round;">
<circle cx="157.3022" cy="78.7400" r="0.5000" /> 
</g>
<g style="fill:#000000; fill-opacity:1.0000; 
stroke:#000000; stroke-width:0.0212; stroke-opacity:1; 
stroke-linecap:round; stroke-linejoin:round;">
</g>
<g style="fill:#000000; fill-opacity:1.0000; 
stroke:#000000; stroke-width:0.0000; stroke-opacity:1; 
stroke-linecap:round; stroke-linejoin:round;">
<circle cx="154.7622" cy="78.7400" r="0.5000" /> 
</g>
<g style="fill:#000000; fill-opacity:1.0000; 
stroke:#000000; stroke-width:0.0212; stroke-opacity:1; 
stroke-linecap:round; stroke-linejoin:round;">
</g>
<g style="fill:#000000; fill-opacity:1.0000; 
stroke:#000000; stroke-width:0.0000; stroke-opacity:1; 
stroke-linecap:round; stroke-linejoin:round;">
<circle cx="144.6022" cy="78.7400" r="0.4000" /> 
</g>
<g style="fill:#000000; fill-opacity:1.0000; 
stroke:#000000; stroke-width:0.0212; stroke-opacity:1; 
stroke-linecap:round; stroke-linejoin:round;">
</g>
<g style="fill:#000000; fill-opacity:1.0000; 
stroke:#000000; stroke-width:0.0000; stroke-opacity:1; 
stroke-linecap:round; stroke-linejoin:round;">
<circle cx="142.0622" cy="76.2000" r="0.4000" /> 
</g>
<g style="fill:#000000; fill-opacity:1.0000; 
stroke:#000000; stroke-width:0.0212; stroke-opacity:1; 
stroke-linecap:round; stroke-linejoin:round;">
</g>
<g style="fill:#000000; fill-opacity:1.0000; 
stroke:#000000; stroke-width:0.0000; stroke-opacity:1; 
stroke-linecap:round; stroke-linejoin:round;">
<circle cx="144.6022" cy="73.6600" r="0.4000" /> 
</g>
<g style="fill:#000000; fill-opacity:1.0000; 
stroke:#000000; stroke-width:0.0212; stroke-opacity:1; 
stroke-linecap:round; stroke-linejoin:round;">
</g>
<g style="fill:#000000; fill-opacity:1.0000; 
stroke:#000000; stroke-width:0.0000; stroke-opacity:1; 
stroke-linecap:round; stroke-linejoin:round;">
<circle cx="170.0022" cy="74.9300" r="0.5000" /> 
</g>
<g style="fill:#000000; fill-opacity:1.0000; 
stroke:#000000; stroke-width:0.0212; stroke-opacity:1; 
stroke-linecap:round; stroke-linejoin:round;">
</g>
<g style="fill:#000000; fill-opacity:1.0000; 
stroke:#000000; stroke-width:0.0000; stroke-opacity:1; 
stroke-linecap:round; stroke-linejoin:round;">
<circle cx="170.0022" cy="72.3900" r="0.5000" /> 
</g>
<g style="fill:#000000; fill-opacity:1.0000; 
stroke:#000000; stroke-width:0.0212; stroke-opacity:1; 
stroke-linecap:round; stroke-linejoin:round;">
</g>
<g style="fill:#000000; fill-opacity:1.0000; 
stroke:#000000; stroke-width:0.0000; stroke-opacity:1; 
stroke-linecap:round; stroke-linejoin:round;">
<circle cx="148.4122" cy="68.5800" r="0.4000" /> 
</g>
<g style="fill:#000000; fill-opacity:1.0000; 
stroke:#000000; stroke-width:0.0212; stroke-opacity:1; 
stroke-linecap:round; stroke-linejoin:round;">
</g>
<g style="fill:#000000; fill-opacity:1.0000; 
stroke:#000000; stroke-width:0.0000; stroke-opacity:1; 
stroke-linecap:round; stroke-linejoin:round;">
<circle cx="140.7922" cy="68.5800" r="0.4000" /> 
</g>
<g style="fill:#000000; fill-opacity:1.0000; 
stroke:#000000; stroke-width:0.0212; stroke-opacity:1; 
stroke-linecap:round; stroke-linejoin:round;">
</g>
<g style="fill:#000000; fill-opacity:1.0000; 
stroke:#000000; stroke-width:0.0000; stroke-opacity:1; 
stroke-linecap:round; stroke-linejoin:round;">
<circle cx="170.0022" cy="100.3300" r="1.1000" /> 
</g>
<g style="fill:#000000; fill-opacity:1.0000; 
stroke:#000000; stroke-width:0.0212; stroke-opacity:1; 
stroke-linecap:round; stroke-linejoin:round;">
</g>
<g style="fill:#000000; fill-opacity:1.0000; 
stroke:#000000; stroke-width:0.0000; stroke-opacity:1; 
stroke-linecap:round; stroke-linejoin:round;">
<circle cx="170.0022" cy="67.3100" r="1.1000" /> 
</g>
<g style="fill:#000000; fill-opacity:1.0000; 
stroke:#000000; stroke-width:0.0212; stroke-opacity:1; 
stroke-linecap:round; stroke-linejoin:round;">
</g>
<g style="fill:#000000; fill-opacity:1.0000; 
stroke:#000000; stroke-width:0.0000; stroke-opacity:1; 
stroke-linecap:round; stroke-linejoin:round;">
<circle cx="157.3022" cy="72.2177" r="0.5000" /> 
</g>
<g style="fill:#000000; fill-opacity:1.0000; 
stroke:#000000; stroke-width:0.0212; stroke-opacity:1; 
stroke-linecap:round; stroke-linejoin:round;">
</g>
<g style="fill:#000000; fill-opacity:1.0000; 
stroke:#000000; stroke-width:0.0000; stroke-opacity:1; 
stroke-linecap:round; stroke-linejoin:round;">
<circle cx="157.3022" cy="67.2177" r="0.5000" /> 
</g>
<g style="fill:#000000; fill-opacity:1.0000; 
stroke:#000000; stroke-width:0.0212; stroke-opacity:1; 
stroke-linecap:round; stroke-linejoin:round;">
</g>
<g style="fill:#000000; fill-opacity:1.0000; 
stroke:#000000; stroke-width:0.0000; stroke-opacity:1; 
stroke-linecap:round; stroke-linejoin:round;">
<circle cx="152.2222" cy="86.3600" r="0.4000" /> 
</g>
<g style="fill:#000000; fill-opacity:1.0000; 
stroke:#000000; stroke-width:0.0212; stroke-opacity:1; 
stroke-linecap:round; stroke-linejoin:round;">
</g>
<g style="fill:#000000; fill-opacity:1.0000; 
stroke:#000000; stroke-width:0.0000; stroke-opacity:1; 
stroke-linecap:round; stroke-linejoin:round;">
<circle cx="157.2222" cy="86.3600" r="0.4000" /> 
</g>
<g style="fill:#000000; fill-opacity:1.0000; 
stroke:#000000; stroke-width:0.0212; stroke-opacity:1; 
stroke-linecap:round; stroke-linejoin:round;">
</g>
<g style="fill:#000000; fill-opacity:1.0000; 
stroke:#000000; stroke-width:0.0000; stroke-opacity:1; 
stroke-linecap:round; stroke-linejoin:round;">
<circle cx="136.9822" cy="88.9000" r="0.5000" /> 
</g>
<g style="fill:#000000; fill-opacity:1.0000; 
stroke:#000000; stroke-width:0.0212; stroke-opacity:1; 
stroke-linecap:round; stroke-linejoin:round;">
</g>
<g style="fill:#000000; fill-opacity:1.0000; 
stroke:#000000; stroke-width:0.0000; stroke-opacity:1; 
stroke-linecap:round; stroke-linejoin:round;">
<circle cx="136.9822" cy="91.4400" r="0.5000" /> 
</g>
<g style="fill:#000000; fill-opacity:1.0000; 
stroke:#000000; stroke-width:0.0212; stroke-opacity:1; 
stroke-linecap:round; stroke-linejoin:round;">
</g>
<g style="fill:#000000; fill-opacity:1.0000; 
stroke:#000000; stroke-width:0.0000; stroke-opacity:1; 
stroke-linecap:round; stroke-linejoin:round;">
<circle cx="136.9822" cy="93.9800" r="0.5000" /> 
</g>
<g style="fill:#000000; fill-opacity:1.0000; 
stroke:#000000; stroke-width:0.0212; stroke-opacity:1; 
stroke-linecap:round; stroke-linejoin:round;">
</g>
<g style="fill:#000000; fill-opacity:1.0000; 
stroke:#000000; stroke-width:0.0000; stroke-opacity:1; 
stroke-linecap:round; stroke-linejoin:round;">
<circle cx="135.7122" cy="67.3100" r="1.1000" /> 
</g>
<g style="fill:#000000; fill-opacity:1.0000; 
stroke:#000000; stroke-width:0.0212; stroke-opacity:1; 
stroke-linecap:round; stroke-linejoin:round;">
</g>
<g style="fill:#000000; fill-opacity:1.0000; 
stroke:#000000; stroke-width:0.0000; stroke-opacity:1; 
stroke-linecap:round; stroke-linejoin:round;">
<circle cx="170.0022" cy="109.2200" r="1.1000" /> 
</g>
<g style="fill:#000000; fill-opacity:1.0000; 
stroke:#000000; stroke-width:0.0212; stroke-opacity:1; 
stroke-linecap:round; stroke-linejoin:round;">
</g>
<g style="fill:#000000; fill-opacity:1.0000; 
stroke:#000000; stroke-width:0.0000; stroke-opacity:1; 
stroke-linecap:round; stroke-linejoin:round;">
<circle cx="142.0622" cy="97.7900" r="0.4000" /> 
</g>
<g style="fill:#000000; fill-opacity:1.0000; 
stroke:#000000; stroke-width:0.0212; stroke-opacity:1; 
stroke-linecap:round; stroke-linejoin:round;">
</g>
<g style="fill:#000000; fill-opacity:1.0000; 
stroke:#000000; stroke-width:0.0000; stroke-opacity:1; 
stroke-linecap:round; stroke-linejoin:round;">
<circle cx="142.0622" cy="105.4100" r="0.4000" /> 
</g>
<g style="fill:#000000; fill-opacity:1.0000; 
stroke:#000000; stroke-width:0.0212; stroke-opacity:1; 
stroke-linecap:round; stroke-linejoin:round;">
</g>
<g style="fill:#000000; fill-opacity:1.0000; 
stroke:#000000; stroke-width:0.0000; stroke-opacity:1; 
stroke-linecap:round; stroke-linejoin:round;">
<circle cx="140.7922" cy="83.8200" r="0.4000" /> 
</g>
<g style="fill:#000000; fill-opacity:1.0000; 
stroke:#000000; stroke-width:0.0212; stroke-opacity:1; 
stroke-linecap:round; stroke-linejoin:round;">
</g>
<g style="fill:#000000; fill-opacity:1.0000; 
stroke:#000000; stroke-width:0.0000; stroke-opacity:1; 
stroke-linecap:round; stroke-linejoin:round;">
<circle cx="148.4122" cy="83.8200" r="0.4000" /> 
</g>
<g style="fill:#000000; fill-opacity:1.0000; 
stroke:#000000; stroke-width:0.0212; stroke-opacity:1; 
stroke-linecap:round; stroke-linejoin:round;">
</g>
<g style="fill:#000000; fill-opacity:1.0000; 
stroke:#000000; stroke-width:0.0000; stroke-opacity:1; 
stroke-linecap:round; stroke-linejoin:round;">
<circle cx="170.0022" cy="83.8200" r="0.5000" /> 
</g>
<g style="fill:#000000; fill-opacity:1.0000; 
stroke:#000000; stroke-width:0.0212; stroke-opacity:1; 
stroke-linecap:round; stroke-linejoin:round;">
</g>
<g style="fill:#000000; fill-opacity:1.0000; 
stroke:#000000; stroke-width:0.0000; stroke-opacity:1; 
stroke-linecap:round; stroke-linejoin:round;">
<circle cx="170.0022" cy="81.2800" r="0.5000" /> 
</g>
<g style="fill:#000000; fill-opacity:1.0000; 
stroke:#000000; stroke-width:0.0212; stroke-opacity:1; 
stroke-linecap:round; stroke-linejoin:round;">
</g>
<g style="fill:#000000; fill-opacity:1.0000; 
stroke:#000000; stroke-width:0.0000; stroke-opacity:1; 
stroke-linecap:round; stroke-linejoin:round;">
<circle cx="144.6022" cy="88.9000" r="0.4000" /> 
</g>
<g style="fill:#000000; fill-opacity:1.0000; 
stroke:#000000; stroke-width:0.0212; stroke-opacity:1; 
stroke-linecap:round; stroke-linejoin:round;">
</g>
<g style="fill:#000000; fill-opacity:1.0000; 
stroke:#000000; stroke-width:0.0000; stroke-opacity:1; 
stroke-linecap:round; stroke-linejoin:round;">
<circle cx="147.1422" cy="91.4400" r="0.4000" /> 
</g>
<g style="fill:#000000; fill-opacity:1.0000; 
stroke:#000000; stroke-width:0.0212; stroke-opacity:1; 
stroke-linecap:round; stroke-linejoin:round;">
</g>
<g style="fill:#000000; fill-opacity:1.0000; 
stroke:#000000; stroke-width:0.0000; stroke-opacity:1; 
stroke-linecap:round; stroke-linejoin:round;">
<circle cx="144.6022" cy="93.9800" r="0.4000" /> 
</g>
<g style="fill:#000000; fill-opacity:1.0000; 
stroke:#000000; stroke-width:0.0212; stroke-opacity:1; 
stroke-linecap:round; stroke-linejoin:round;">
</g>
<g style="fill:#000000; fill-opacity:1.0000; 
stroke:#000000; stroke-width:0.0000; stroke-opacity:1; 
stroke-linecap:round; stroke-linejoin:round;">
<circle cx="170.0022" cy="93.9800" r="1.1000" /> 
</g>
<g style="fill:#000000; fill-opacity:1.0000; 
stroke:#000000; stroke-width:0.0212; stroke-opacity:1; 
stroke-linecap:round; stroke-linejoin:round;">
</g>
<g style="fill:#000000; fill-opacity:1.0000; 
stroke:#000000; stroke-width:0.0000; stroke-opacity:1; 
stroke-linecap:round; stroke-linejoin:round;">
<circle cx="161.1122" cy="93.9800" r="0.4000" /> 
</g>
<g style="fill:#000000; fill-opacity:1.0000; 
stroke:#000000; stroke-width:0.0212; stroke-opacity:1; 
stroke-linecap:round; stroke-linejoin:round;">
</g>
<g style="fill:#000000; fill-opacity:1.0000; 
stroke:#000000; stroke-width:0.0000; stroke-opacity:1; 
stroke-linecap:round; stroke-linejoin:round;">
<circle cx="153.4922" cy="93.9800" r="0.4000" /> 
</g>
<g style="fill:#000000; fill-opacity:1.0000; 
stroke:#000000; stroke-width:0.0212; stroke-opacity:1; 
stroke-linecap:round; stroke-linejoin:round;">
</g>
<g style="fill:#000000; fill-opacity:1.0000; 
stroke:#000000; stroke-width:0.0000; stroke-opacity:1; 
stroke-linecap:round; stroke-linejoin:round;">
<circle cx="152.2222" cy="104.1400" r="0.5000" /> 
</g>
<g style="fill:#000000; fill-opacity:1.0000; 
stroke:#000000; stroke-width:0.0212; stroke-opacity:1; 
stroke-linecap:round; stroke-linejoin:round;">
</g>
<g style="fill:#000000; fill-opacity:1.0000; 
stroke:#000000; stroke-width:0.0000; stroke-opacity:1; 
stroke-linecap:round; stroke-linejoin:round;">
<circle cx="152.2222" cy="106.6800" r="0.5000" /> 
</g>
<g style="fill:#000000; fill-opacity:1.0000; 
stroke:#000000; stroke-width:0.0212; stroke-opacity:1; 
stroke-linecap:round; stroke-linejoin:round;">
</g>
<g style="fill:#000000; fill-opacity:1.0000; 
stroke:#000000; stroke-width:0.0000; stroke-opacity:1; 
stroke-linecap:round; stroke-linejoin:round;">
<circle cx="135.7122" cy="109.2200" r="1.1000" /> 
</g>
<g style="fill:#000000; fill-opacity:1.0000; 
stroke:#000000; stroke-width:0.0212; stroke-opacity:1; 
stroke-linecap:round; stroke-linejoin:round;">
</g>
<g style="fill:#000000; fill-opacity:1.0000; 
stroke:#000000; stroke-width:0.0000; stroke-opacity:1; 
stroke-linecap:round; stroke-linejoin:round;">
<circle cx="145.8722" cy="105.4100" r="0.4000" /> 
</g>
<g style="fill:#000000; fill-opacity:1.0000; 
stroke:#000000; stroke-width:0.0212; stroke-opacity:1; 
stroke-linecap:round; stroke-linejoin:round;">
</g>
<g style="fill:#000000; fill-opacity:1.0000; 
stroke:#000000; stroke-width:0.0000; stroke-opacity:1; 
stroke-linecap:round; stroke-linejoin:round;">
<circle cx="145.8722" cy="97.7900" r="0.4000" /> 
</g>
<g style="fill:#000000; fill-opacity:1.0000; 
stroke:#000000; stroke-width:0.0212; stroke-opacity:1; 
stroke-linecap:round; stroke-linejoin:round;">
</g>
<g style="fill:#000000; fill-opacity:1.0000; 
stroke:#000000; stroke-width:0.0000; stroke-opacity:1; 
stroke-linecap:round; stroke-linejoin:round;">
<circle cx="152.2222" cy="99.0600" r="0.4000" /> 
</g>
<g style="fill:#000000; fill-opacity:1.0000; 
stroke:#000000; stroke-width:0.0212; stroke-opacity:1; 
stroke-linecap:round; stroke-linejoin:round;">
</g>
<g style="fill:#000000; fill-opacity:1.0000; 
stroke:#000000; stroke-width:0.0000; stroke-opacity:1; 
stroke-linecap:round; stroke-linejoin:round;">
<circle cx="157.2222" cy="99.0600" r="0.4000" /> 
</g>
<g style="fill:#000000; fill-opacity:1.0000; 
stroke:#000000; stroke-width:0.0212; stroke-opacity:1; 
stroke-linecap:round; stroke-linejoin:round;">
</g>
<g style="fill:#FFFFFF; fill-opacity:1.0000; 
stroke:#FFFFFF; stroke-width:0.0212; stroke-opacity:1; 
stroke-linecap:round; stroke-linejoin:round;">
</g> 
</svg>
